<?xml version="1.0" encoding="UTF-8"?>
<svg version="1.1" xmlns="http://www.w3.org/2000/svg" width="1024" height="1024">
<path d="M0 0 C337.92 0 675.84 0 1024 0 C1024 337.92 1024 675.84 1024 1024 C686.08 1024 348.16 1024 0 1024 C0 686.08 0 348.16 0 0 Z " fill="#1F1E1C" transform="translate(0,0)"/>
<path d="M0 0 C2.99164638 1.15548642 5.05805373 1.25777399 8.24584961 0.86743164 C12.54968358 -1.15790199 14.47179535 -3.01605849 16.12084961 -7.38256836 C16.67772461 -9.23881836 16.67772461 -9.23881836 17.24584961 -11.13256836 C19.55584961 -11.13256836 21.86584961 -11.13256836 24.24584961 -11.13256836 C24.24584961 16.58743164 24.24584961 44.30743164 24.24584961 72.86743164 C21.93584961 72.86743164 19.62584961 72.86743164 17.24584961 72.86743164 C16.78758789 70.9937793 16.78758789 70.9937793 16.32006836 69.08227539 C9.78338585 43.70456682 -0.9911413 18.64375602 -24.32836914 4.67993164 C-44.46751076 -6.82740375 -68.79945754 -9.71518288 -91.40258789 -4.23022461 C-105.43655237 0.36598054 -117.80214328 8.48645243 -124.75415039 21.86743164 C-131.20498547 36.92629423 -131.45363404 51.70742381 -125.50415039 66.99243164 C-123.22081365 72.23939129 -120.42124763 76.50630576 -116.75415039 80.86743164 C-116.1418457 81.67825195 -115.52954102 82.48907227 -114.89868164 83.32446289 C-109.07856252 90.22591562 -100.85751724 95.00850795 -93.06665039 99.42993164 C-92.49333984 99.75703125 -91.9200293 100.08413086 -91.3293457 100.42114258 C-77.04451445 108.29640574 -61.83115293 114.50307537 -46.83544922 120.86743164 C-27.72822941 128.9885453 -8.8600359 137.51283943 7.24584961 150.86743164 C7.88651367 151.36243164 8.52717773 151.85743164 9.18725586 152.36743164 C24.9243343 165.08426271 34.94211501 183.88814044 37.24584961 203.86743164 C37.40626534 207.30607761 37.43087869 210.73793834 37.43334961 214.17993164 C37.4455957 215.06616211 37.4578418 215.95239258 37.47045898 216.86547852 C37.51635684 237.84079726 28.02087075 257.44969386 13.73022461 272.50415039 C-11.38908028 296.39908664 -44.00070716 303.93357318 -77.82836914 303.20727539 C-98.57239675 302.40690854 -118.0538901 295.8634489 -137.57055664 289.23852539 C-148.43539657 285.49247036 -148.43539657 285.49247036 -159.75415039 285.86743164 C-164.30309449 289.30687718 -164.86441836 294.49391847 -165.75415039 299.86743164 C-168.06415039 299.86743164 -170.37415039 299.86743164 -172.75415039 299.86743164 C-172.75415039 266.53743164 -172.75415039 233.20743164 -172.75415039 198.86743164 C-170.44415039 198.86743164 -168.13415039 198.86743164 -165.75415039 198.86743164 C-165.46024414 200.34276367 -165.46024414 200.34276367 -165.16040039 201.84790039 C-160.46969396 224.1062961 -151.90170968 246.61153969 -136.75415039 263.86743164 C-136.10961914 264.70145508 -135.46508789 265.53547852 -134.80102539 266.39477539 C-122.64611357 281.07809444 -102.99877764 289.36067212 -84.75415039 292.86743164 C-83.86083008 293.05176758 -82.96750977 293.23610352 -82.04711914 293.42602539 C-59.99704674 296.38172905 -37.91780128 292.95990778 -19.74243164 279.66430664 C-14.35079356 275.05441578 -10.25166793 270.02394517 -6.75415039 263.86743164 C-6.37645508 263.21000977 -5.99875977 262.55258789 -5.60961914 261.87524414 C-0.7538833 252.81847842 0.73737946 244.07026762 0.62084961 233.86743164 C0.63825195 232.34375977 0.63825195 232.34375977 0.65600586 230.78930664 C0.59553335 215.06645544 -6.12009073 203.08801187 -16.93383789 191.92602539 C-18.75415039 189.86743164 -18.75415039 189.86743164 -19.75415039 186.86743164 C-21.06687386 186.16104696 -22.40610271 185.50381963 -23.75415039 184.86743164 C-25.17912938 183.81971327 -26.60252479 182.76957606 -28.00927734 181.69750977 C-45.05055425 168.85781891 -65.00241499 160.93779295 -84.48193359 152.58813477 C-93.3068863 148.79276435 -102.02323303 144.85089856 -110.62133789 140.56274414 C-111.85123192 139.95033119 -111.85123192 139.95033119 -113.10597229 139.32554626 C-135.04268302 128.23879534 -154.67945182 111.79361395 -162.62915039 87.92993164 C-168.6208219 69.06211839 -167.10180549 49.36453213 -158.50415039 31.55493164 C-155.23597356 25.36774217 -151.42983908 20.0584768 -146.75415039 14.86743164 C-145.95944336 13.9509082 -145.95944336 13.9509082 -145.14868164 13.01586914 C-132.1876243 -1.00127435 -113.12031216 -9.27605622 -94.75415039 -13.13256836 C-93.95581787 -13.30844482 -93.15748535 -13.48432129 -92.33496094 -13.66552734 C-60.77843435 -20.11564352 -29.12379586 -11.9763575 0 0 Z " fill="#AD9A68" transform="translate(579.754150390625,364.132568359375)"/>
<path d="M0 0 C12.69999189 1.48738644 23.0188767 10.16803919 31.0625 19.5625 C42.41048401 34.35062089 44.98408418 49.60441563 45.59619141 67.72216797 C46.19266055 83.47821354 48.27179504 99.60371841 59.44921875 111.57421875 C60.96031414 113.09521734 60.96031414 113.09521734 63 114 C62.566875 112.43765625 62.566875 112.43765625 62.125 110.84375 C58.09102439 95.58214489 56.49701474 79.97337458 63.6875 65.25 C64.120625 64.5075 64.55375 63.765 65 63 C65.33 63 65.66 63 66 63 C66.226875 64.27875 66.45375 65.5575 66.6875 66.875 C68.2122698 73.75824654 70.99477516 80.00936765 76 85 C76 85.66 76 86.32 76 87 C76.55171875 87.23332031 77.1034375 87.46664062 77.671875 87.70703125 C80.61255267 89.34019284 82.79077251 91.39339207 85.25 93.6875 C88.5307518 96.7329744 91.83141161 99.73388911 95.25 102.625 C102.60964608 109.08162202 110.29688032 116.88767405 111.3046875 127.08203125 C111.31151813 129.74256269 111.22671133 132.34999646 111 135 C111.99257813 134.51402344 112.98515625 134.02804687 114.0078125 133.52734375 C117.93298854 131.85287826 121.63629571 131.49917478 125.875 131.5625 C126.57463867 131.56862305 127.27427734 131.57474609 127.99511719 131.58105469 C136.2164245 131.82879923 141.40323957 134.10606645 147 140 C146.27296875 140.14695312 145.5459375 140.29390625 144.796875 140.4453125 C132.87653908 143.10446436 120.83435546 147.81357454 113.5078125 158.09375 C107.5312591 168.13718886 106.55044194 177.44469289 107 189 C107.32613281 188.44570313 107.65226562 187.89140625 107.98828125 187.3203125 C108.42527344 186.59585938 108.86226562 185.87140625 109.3125 185.125 C109.74175781 184.40570313 110.17101562 183.68640625 110.61328125 182.9453125 C112 181 112 181 115 179 C117.6875 178.875 117.6875 178.875 120 179 C118.96770516 181.61897025 117.90589141 184.21596715 116.78125 186.796875 C110.85164864 200.37959662 110.85164864 200.37959662 112.35546875 214.6640625 C112.95564513 215.98918133 113.56682913 217.30935595 114.1875 218.625 C114.83399128 220.05048304 115.47981978 221.47626684 116.125 222.90234375 C116.60453125 223.94817627 116.60453125 223.94817627 117.09375 225.01513672 C120.80431077 233.14198452 124.02253784 241.3142974 126.42138672 249.92578125 C126.83682111 251.41503467 127.26141033 252.90174574 127.69189453 254.38671875 C137.85349073 289.81659685 139.15595496 325.61049841 134 362 C133.79284835 363.59503645 133.58580658 365.19008718 133.37890625 366.78515625 C131.60432222 379.54095111 127.88580595 391.74854749 124 404 C123.72140137 404.88510254 123.44280273 405.77020508 123.15576172 406.68212891 C112.48087023 440.12501158 94.33781459 469.92454164 71 496 C70.09882346 497.02462097 69.19777906 498.04935819 68.296875 499.07421875 C26.20314134 546.47589211 -35.98378039 576.37018344 -99 581 C-102.46664926 581.14324159 -105.9290645 581.18643715 -109.3984375 581.203125 C-110.354086 581.20882507 -111.3097345 581.21452515 -112.29434204 581.22039795 C-114.30608032 581.22977496 -116.31783346 581.23635255 -118.32958984 581.24023438 C-121.33329765 581.24986627 -124.33629786 581.28093046 -127.33984375 581.3125 C-145.3543911 581.41236384 -162.58235775 579.07559231 -180.125 575.0625 C-181.77628906 574.70381836 -181.77628906 574.70381836 -183.4609375 574.33789062 C-190.53820885 572.74885873 -197.24929128 570.65152181 -204 568 C-199.75797213 566.58599071 -196.46519772 568.05820354 -192.3125 569.25 C-183.60161311 571.64276451 -174.92940466 573.61013332 -166 575 C-165.00548828 575.16991455 -164.01097656 575.3398291 -162.98632812 575.51489258 C-152.33137489 577.16629253 -141.81509784 577.33896469 -131.05126953 577.31567383 C-128.03250271 577.31253381 -125.0147389 577.33598823 -121.99609375 577.36132812 C-103.7752952 577.42149398 -85.80116614 575.59667388 -68.0625 571.3125 C-66.9895166 571.05686279 -65.9165332 570.80122559 -64.81103516 570.5378418 C1.36477631 554.2631132 57.67291051 512.96704054 93.375 455.0625 C94.59006809 453.0457089 95.79763499 451.02439008 97 449 C97.44432373 448.30011963 97.88864746 447.60023926 98.34643555 446.87915039 C102.65638194 439.98141378 105.90935045 432.79958529 109.0625 425.3125 C109.32424011 424.69704315 109.58598022 424.0815863 109.85565186 423.44747925 C113.30447181 415.33522281 116.54084879 407.2140615 119.1328125 398.78515625 C120 396 120 396 120.96484375 393.74609375 C122.52990441 389.59425359 123.45732905 385.32231299 124.4375 381 C124.65631836 380.03682861 124.87513672 379.07365723 125.10058594 378.08129883 C127.127793 368.88475573 128.56995689 359.63475998 129.71777344 350.2902832 C129.8943552 348.85731305 130.08314769 347.42573504 130.29003906 345.99682617 C131.35702752 338.02405128 131.24109702 329.96664045 131.25 321.9375 C131.25167175 321.14264191 131.25334351 320.34778381 131.25506592 319.52883911 C131.25678525 305.84419642 130.32672105 292.504081 128 279 C127.8467627 278.1030542 127.69352539 277.2061084 127.53564453 276.28198242 C126.42067108 269.95358915 125.09872107 263.69148718 123.625 257.4375 C123.33109375 256.13522461 123.33109375 256.13522461 123.03125 254.80664062 C121.75612543 249.38736121 120.04849146 244.36712494 117.90576172 239.23071289 C116.81093722 236.53437557 116.01399281 233.80650421 115.25 231 C107.99733707 207.15791266 94.2675327 179.28891488 76 162 C76.64324219 162.89976562 77.28648437 163.79953125 77.94921875 164.7265625 C83.62724449 172.77007759 88.94826008 180.98572943 94 189.4375 C94.82697388 190.80285889 94.82697388 190.80285889 95.6706543 192.19580078 C98.88415799 197.63923462 101.30101516 202.90545075 103 209 C100.17738511 206.50307144 98.19503944 203.84143595 96.1875 200.6875 C93.71813607 196.89038763 91.04459606 193.84532981 87.76953125 190.734375 C85.96891795 188.96953547 84.36887571 187.11933259 82.75 185.1875 C74.13345229 175.32909952 64.21200453 166.01105972 50.9453125 163.3984375 C45.38285447 163.10567655 41.20279674 164.17579925 36.66015625 167.421875 C33.97939423 169.97017583 32.56982108 172.6641302 31 176 C27.10348361 171.73140247 27.50948846 167.87073074 27.65234375 162.32421875 C28.51749927 154.05177665 32.65417112 149.02972117 38 143 C37.38592285 142.98541748 36.7718457 142.97083496 36.13916016 142.95581055 C33.30054015 142.88038055 30.46297742 142.78404224 27.625 142.6875 C26.17673828 142.65366211 26.17673828 142.65366211 24.69921875 142.61914062 C11.27419307 142.12358599 0.90128765 137.7563358 -8.43359375 127.98828125 C-17.3974084 116.61027213 -19.24162638 102.05937116 -17.79785156 88.03662109 C-16.07928107 74.58961767 -11.67451319 62.18206519 -6.97265625 49.53515625 C2.59852715 27.38831683 2.59852715 27.38831683 1.5 4.5625 C1.005 3.716875 0.51 2.87125 0 2 C0 1.34 0 0.68 0 0 Z " fill="#BFAC79" transform="translate(639,186)"/>
<path d="M0 0 C0.33 -0.66 0.66 -1.32 1 -2 C1.04898437 -0.81664062 1.09796875 0.36671875 1.1484375 1.5859375 C1.69855224 13.67310977 3.31138875 24.44235141 7 36 C2.84111277 35.42313423 0.08972103 34.02202929 -3.4453125 31.79296875 C-10.00328794 27.86400121 -16.74706589 25.03742531 -23.875 22.3125 C-25.03902344 21.85294922 -26.20304687 21.39339844 -27.40234375 20.91992188 C-38.28917158 16.69419302 -49.41694249 13.41717093 -60.8125 10.875 C-61.46541016 10.71902344 -62.11832031 10.56304687 -62.79101562 10.40234375 C-77.58051943 7.07916834 -92.53341928 6.62386767 -107.625 6.6875 C-109.00880356 6.69073273 -109.00880356 6.69073273 -110.42056274 6.69403076 C-124.45160942 6.74655137 -138.21887304 7.11686396 -152 10 C-153.35786621 10.28206299 -153.35786621 10.28206299 -154.74316406 10.56982422 C-197.72220185 19.90050652 -235.45672334 41.78672798 -267 72 C-267.75023437 72.70898438 -268.50046875 73.41796875 -269.2734375 74.1484375 C-283.21114908 87.64543092 -294.47388144 104.17392911 -304 121 C-304.36834961 121.63566895 -304.73669922 122.27133789 -305.11621094 122.92626953 C-323.6136253 155.00396253 -332.21636633 191.88435485 -332.25 228.6875 C-332.25100708 229.45634521 -332.25201416 230.22519043 -332.25305176 231.01733398 C-332.23326147 253.48280829 -329.92347795 276.63550507 -322.515625 297.9921875 C-321.90231465 300.38038083 -321.91444661 302.54461768 -322 305 C-332.4726211 304.43232521 -340.8219286 302.84287607 -349 296 C-350.19140625 293.83984375 -350.19140625 293.83984375 -351 292 C-349.40540172 299.24817398 -347.45742931 305.44280647 -344 312 C-344 312.99 -344 313.98 -344 315 C-344.66 315 -345.32 315 -346 315 C-346.33 315.66 -346.66 316.32 -347 317 C-362.06198493 272.61735108 -364.96682817 223.78860822 -353.54589844 178.1875 C-352.98285947 175.93131521 -352.44841356 173.6693839 -351.9140625 171.40625 C-339.1045649 118.60344743 -305.84126071 66.51413445 -262 34 C-261.35240723 33.51370117 -260.70481445 33.02740234 -260.03759766 32.52636719 C-250.04491507 25.04475844 -239.90223606 18.08346837 -229 12 C-228.24976563 11.57509277 -227.49953125 11.15018555 -226.7265625 10.71240234 C-160.32439099 -26.61195741 -69.45677378 -34.72838689 0 0 Z " fill="#1A1815" transform="translate(620,273)"/>
<path d="M0 0 C0.61029053 0.50313721 1.22058105 1.00627441 1.84936523 1.5246582 C12.08013649 8.7726185 22.00864906 7.67918984 34.0625 7.1875 C60.91976913 6.23975233 60.91976913 6.23975233 68.75097656 12.37084961 C70.1875 13.75 70.1875 13.75 72 16 C71.16597656 15.96519531 70.33195312 15.93039062 69.47265625 15.89453125 C58.79732304 15.63773629 52.51993687 16.48801842 44.4375 23.6875 C42.94534841 25.11151682 41.46153015 26.54457227 40 28 C40.56074219 27.71382812 41.12148438 27.42765625 41.69921875 27.1328125 C52.96437631 21.58630029 63.98028517 19.93525795 76.25 23.5 C88.58873722 28.21628717 98.42039665 37.36204818 103.93359375 49.31640625 C109.51214453 63.35473733 110.01302123 78.00673454 104 92 C99.65275718 100.2304541 94.09194826 106.16808169 85 109 C75.98821731 110.42591498 69.69511083 107.5123163 62 103 C64 102 64 102 67.375 102.5625 C70.94692379 102.99359425 72.16621394 103.07084366 75 101 C76.57422753 97.85154494 76.66928343 94.40781928 76 91 C73.32146536 86.85238725 70.53227463 84.88074346 66.125 82.75 C64.61292969 81.99976563 64.61292969 81.99976563 63.0703125 81.234375 C55.34535482 78.12866682 46.85877347 78.68618929 38.6484375 78.48242188 C26.25864432 78.08396372 14.28502862 77.45444789 5.15234375 68.109375 C-1.2369802 60.134494 -2.43799366 53.0414102 -2 43 C-2 42.01 -2 41.02 -2 40 C-2.60328125 40.44472656 -3.2065625 40.88945313 -3.828125 41.34765625 C-4.62734375 41.91355469 -5.4265625 42.47945312 -6.25 43.0625 C-7.03890625 43.63097656 -7.8278125 44.19945312 -8.640625 44.78515625 C-11 46 -11 46 -13.296875 45.68359375 C-13.85890625 45.45800781 -14.4209375 45.23242188 -15 45 C-14.60167969 44.5875 -14.20335937 44.175 -13.79296875 43.75 C-7.82428875 37.24399358 -4.84816827 29.90040296 -4.90234375 21.015625 C-4.90556641 20.08105469 -4.90878906 19.14648438 -4.91210938 18.18359375 C-4.92048828 17.21550781 -4.92886719 16.24742187 -4.9375 15.25 C-4.94201172 14.26644531 -4.94652344 13.28289063 -4.95117188 12.26953125 C-4.96293517 9.84629209 -4.97937316 7.42317727 -5 5 C-2.9631647 7.51237743 -1.0161086 9.97526179 0.75 12.6875 C11.30740467 28.72980631 26.21557992 42.42592933 44 50 C43.12601562 49.23429688 43.12601562 49.23429688 42.234375 48.453125 C31.58716408 39.01125871 21.79942152 29.21269571 13 18 C11.5845845 16.22816646 10.16795675 14.4573005 8.75 12.6875 C8.10546875 11.87667969 7.4609375 11.06585937 6.796875 10.23046875 C5.23162556 8.28751782 3.62875264 6.38953606 2 4.5 C0 2 0 2 0 0 Z " fill="#B6A470" transform="translate(313,662)"/>
<path d="M0 0 C16.07060747 -0.57837662 32.62220437 6.97753542 44.67578125 17.2890625 C50.55517703 22.90972918 55.06176923 28.8942914 59 36 C59.38800781 36.69222656 59.77601563 37.38445312 60.17578125 38.09765625 C61.30518129 40.36081694 62.1710711 42.60926945 63 45 C63.37253906 46.0725 63.74507812 47.145 64.12890625 48.25 C70.07753448 67.72589047 68.30708134 91.18364161 64.40136719 110.92724609 C64.02784825 112.85618514 63.71830567 114.79720981 63.4140625 116.73828125 C60.4467498 134.36874309 53.63695624 151.41134728 45 167 C44.47019531 167.96679688 43.94039062 168.93359375 43.39453125 169.9296875 C42.93433594 170.61289062 42.47414063 171.29609375 42 172 C41.34 172 40.68 172 40 172 C38.49318357 168.98636715 38.96089905 165.91018709 39.04296875 162.61328125 C39.06537383 161.10222691 39.08682738 159.59115822 39.10742188 158.08007812 C39.14438177 155.70118283 39.18723636 153.32302268 39.24682617 150.94458008 C39.30170683 148.64654243 39.3305226 146.34931438 39.35546875 144.05078125 C39.37925095 143.34947586 39.40303314 142.64817047 39.42753601 141.9256134 C39.45643946 136.40893078 38.06533914 133.41949391 35 129 C31.96474514 126.97649676 30.80573798 126.67875982 27.3125 126.375 C26.50425781 126.30023437 25.69601562 126.22546875 24.86328125 126.1484375 C23.94095703 126.07496094 23.94095703 126.07496094 23 126 C23.0841203 123.13990965 23.56818739 121.45351173 25.5546875 119.3671875 C30.36976129 115.23141872 33.2155153 113.65546787 39.609375 113.70703125 C44.27075858 114.27827924 47.70418288 116.70418288 51 120 C48.36404691 110.55450144 42.18015074 106.79931242 34.375 101.72460938 C28.83164155 97.97843516 23.31808916 93.63522543 21.41259766 86.93432617 C21.125 85 21.125 85 21 82 C24.68914525 82.25080604 28.37571559 82.52924433 32.0625 82.8125 C33.10083984 82.88275391 34.13917969 82.95300781 35.20898438 83.02539062 C41.09978711 83.49291465 45.73672243 84.27504069 51 87 C49.29071273 81.646042 46.86350655 80.16392389 42.12109375 77.47265625 C38.62165585 75.82148217 35.05808927 74.59564374 31.375 73.4375 C22.54833051 70.65041956 16.62475884 68.0817832 11.91015625 59.8671875 C9.88156804 55.70553444 9.84580343 51.9608823 9.875 47.4375 C9.87693359 46.7165918 9.87886719 45.99568359 9.88085938 45.25292969 C9.9120396 41.38831353 10.06108612 37.59363154 10.5 33.75 C11.60921599 23.73344345 12.0751578 15.55545478 6 7 C4.0988495 5.10775418 2.15992492 3.60738599 0 2 C0 1.34 0 0.68 0 0 Z " fill="#D6C28F" transform="translate(701,441)"/>
<path d="M0 0 C-0.16081055 0.54624023 -0.32162109 1.09248047 -0.48730469 1.65527344 C-3.2847158 14.44876691 -1.47604653 29.49328938 1.31640625 42.1328125 C3.23357291 52.97849819 4.00093387 66.35061103 -2 76 C-4.83682971 79.72102221 -7.93429059 83.20281994 -11.0703125 86.671875 C-14.50341581 90.49226912 -17.34891617 94.60478207 -20 99 C-19.360625 98.443125 -18.72125 97.88625 -18.0625 97.3125 C-7.16232227 89.08175355 -7.16232227 89.08175355 0 90 C-0.35191406 90.44988281 -0.70382812 90.89976562 -1.06640625 91.36328125 C-6.74266725 98.75872312 -12.09800448 106.50742152 -16 115 C-15.2265625 114.91878906 -14.453125 114.83757812 -13.65625 114.75390625 C-7.83150609 114.40067302 -3.92417811 114.31353407 0.625 118.25 C3.96508515 121.54780559 5.83180741 124.35171261 6.3125 129.0625 C6 132 6 132 4.5 133.875 C4.005 134.24625 3.51 134.6175 3 135 C2.67 134.01 2.34 133.02 2 132 C-2.52331762 129.22764404 -7.87927783 129.35990973 -13 130 C-21.07662795 132.72025316 -26.29609484 137.86477012 -30.625 145 C-32.96093508 148.77221949 -35.3043302 152.47112317 -38 156 C-37.88027832 155.30052246 -37.76055664 154.60104492 -37.63720703 153.88037109 C-31.17461161 115.67410758 -29.77624997 80.03387867 -39 42 C-33.02759937 47.06749144 -29.4672206 54.06555879 -26 61 C-26.02094727 60.40687012 -26.04189453 59.81374023 -26.06347656 59.20263672 C-26.70837363 38.11287004 -23.95982001 23.07415523 -9.1171875 7.20703125 C-8.41851563 6.47871094 -7.71984375 5.75039063 -7 5 C-6.46632813 4.42636719 -5.93265625 3.85273438 -5.3828125 3.26171875 C-2.27728873 0 -2.27728873 0 0 0 Z " fill="#D5C18E" transform="translate(810,408)"/>
<path d="M0 0 C-3.10638202 1.00489144 -4.87642825 0.99088164 -7.94921875 -0.07421875 C-8.70493164 -0.32768066 -9.46064453 -0.58114258 -10.23925781 -0.84228516 C-11.04717773 -1.12120605 -11.85509766 -1.40012695 -12.6875 -1.6875 C-50.96771856 -14.20413361 -92.30711661 -16.60243696 -132 -10 C-132.86931152 -9.86078125 -133.73862305 -9.7215625 -134.63427734 -9.578125 C-148.17173501 -7.3515186 -161.04508296 -3.45951521 -174 1 C-174.71075684 1.23944336 -175.42151367 1.47888672 -176.15380859 1.72558594 C-203.05917348 10.85525666 -227.89141209 25.25487095 -250 43 C-250.57733887 43.46164551 -251.15467773 43.92329102 -251.74951172 44.39892578 C-266.10134799 55.99723582 -279.96242119 69.17866859 -291 84 C-291.48774902 84.64904297 -291.97549805 85.29808594 -292.47802734 85.96679688 C-299.95632603 95.9558115 -306.93028122 106.09451626 -313 117 C-313.43022461 117.76618652 -313.86044922 118.53237305 -314.30371094 119.32177734 C-324.85566619 138.27260969 -332.80887982 157.93930009 -338 179 C-338.36059128 180.40757407 -338.72126817 181.81512621 -339.08203125 183.22265625 C-343.75730426 201.87410319 -346.23307697 220.64614022 -346.25 239.875 C-346.25067474 240.57019745 -346.25134949 241.2653949 -346.25204468 241.98165894 C-346.17049018 295.50656369 -330.15777617 346.83534254 -300 391 C-299.49114258 391.74620605 -298.98228516 392.49241211 -298.45800781 393.26123047 C-290.35249484 405.12043333 -290.35249484 405.12043333 -281 416 C-281.33 416.66 -281.66 417.32 -282 418 C-291.95084068 407.25973981 -301.07176931 396.35100401 -309 384 C-309.56203125 383.15179687 -310.1240625 382.30359375 -310.703125 381.4296875 C-321.56701213 364.82926184 -329.61574385 347.38398719 -337 329 C-337.43119141 327.95682617 -337.43119141 327.95682617 -337.87109375 326.89257812 C-354.14463252 287.44024223 -355.37760673 240.67168584 -349 199 C-348.89848633 198.27506348 -348.79697266 197.55012695 -348.69238281 196.80322266 C-342.88599297 155.67972126 -323.75687205 113.01022787 -296.90893555 81.28466797 C-295.03758652 79.04498461 -293.2555565 76.75271112 -291.46875 74.4453125 C-286.66148831 68.42987658 -281.33251577 62.97929803 -275.875 57.5625 C-275.1134964 56.80373062 -275.1134964 56.80373062 -274.33660889 56.02963257 C-266.65129186 48.39065263 -258.84206599 41.28036909 -250 35 C-248.63362472 34.00197239 -247.26776723 33.00323564 -245.90234375 32.00390625 C-231.97881863 21.90710277 -217.54066254 13.35432191 -202 6 C-200.93458984 5.49122314 -200.93458984 5.49122314 -199.84765625 4.97216797 C-137.23234111 -24.70313847 -64.24078095 -23.82180935 0 0 Z " fill="#C4B286" transform="translate(607,266)"/>
<path d="M0 0 C7.0180101 3.97687239 12.34830889 9.05180156 17.34375 15.328125 C16.69148437 15.27011719 16.03921875 15.21210938 15.3671875 15.15234375 C9.10914918 14.7927119 9.10914918 14.7927119 3.78125 17.703125 C-0.01625995 21.7927511 0.14095582 24.28811429 0.171875 29.67578125 C0.32867156 32.09543727 0.71768023 34.07833328 1.40625 36.390625 C2.62506122 40.71345903 2.75000954 45.02852685 1.34375 49.328125 C-2.38043895 54.510462 -8.59886149 55.63354567 -14.39453125 57.5078125 C-22.42548577 60.25691896 -29.00566006 63.99018477 -33.09375 71.703125 C-33.93274776 73.25309906 -34.78214064 74.79767747 -35.65625 76.328125 C-35.98625 76.328125 -36.31625 76.328125 -36.65625 76.328125 C-37.07486898 58.00191646 -34.16326204 42.7326915 -25.65625 26.328125 C-36.51731811 40.50410968 -42.27511165 52.9537383 -41.84375 71.015625 C-41.83021484 72.11068359 -41.81667969 73.20574219 -41.80273438 74.33398438 C-41.76781837 76.99923914 -41.71878717 79.66340004 -41.65625 82.328125 C-44.39733171 77.17507422 -45.98321854 71.61199567 -47.78125 66.078125 C-48.15378906 64.97082031 -48.52632812 63.86351562 -48.91015625 62.72265625 C-53.34935691 49.0473165 -53.34935691 49.0473165 -50.484375 42.75390625 C-49.96359375 42.05652344 -49.4428125 41.35914063 -48.90625 40.640625 C-48.35839844 39.88394531 -47.81054688 39.12726563 -47.24609375 38.34765625 C-46.03161325 36.80493778 -44.76165855 35.30573477 -43.46875 33.828125 C-39.64679449 28.55646223 -38.65410113 22.62006158 -37.84375 16.265625 C-36.72477923 9.22953678 -34.22968283 4.97104367 -28.49609375 0.73046875 C-19.54830279 -4.49271329 -9.30780599 -4.2912612 0 0 Z " fill="#C6B481" transform="translate(806.65625,344.671875)"/>
<path d="M0 0 C4.53914716 2.74865201 7.85372126 6.73289922 10.59375 11.234375 C13.13916053 15.34339485 15.53129872 17.18240863 19.875 19.375 C26.89078083 22.95853226 31.67325844 27.37205863 34.4375 34.875 C36.32040975 42.18849703 35.73451765 49.95030675 35.5 57.4375 C34.29632273 55.63198409 33.13317207 53.79703826 32.0546875 51.9140625 C26.97309317 43.28716979 22.13344617 39.16073567 12.5 36.4375 C8.72750801 35.89704749 4.93099589 35.61216552 1.1328125 35.31445312 C-5.14415262 34.72796901 -9.58798473 33.39503944 -14.125 28.75 C-16.46114359 25.76033715 -18.05977045 22.52737452 -19.60546875 19.07421875 C-20.40068088 17.24950195 -20.40068088 17.24950195 -22.5 16.4375 C-23.97668337 16.3422301 -25.45775457 16.30764041 -26.9375 16.3125 C-27.71996094 16.30992187 -28.50242187 16.30734375 -29.30859375 16.3046875 C-31.67895347 16.35367452 -31.67895347 16.35367452 -34.5 17.4375 C-33.01493775 9.51716801 -28.56656173 4.94081569 -22.4375 -0.0625 C-15.99118539 -3.32941057 -6.50665742 -2.89602671 0 0 Z " fill="#CDB987" transform="translate(721.5,401.5625)"/>
<path d="M0 0 C0.61875 0.86625 0.61875 0.86625 1.25 1.75 C7.57831622 9.88640657 15.14330733 12.27968805 24.9375 14.375 C40.24289193 17.96611597 48.19947223 25.84800162 56.546875 38.98828125 C58.64742703 41.89630355 61.19117959 43.79306968 64 46 C64 46.66 64 47.32 64 48 C53.43044398 50.77234256 44.28160338 50.96108673 34 47 C32.98486328 46.61714844 32.98486328 46.61714844 31.94921875 46.2265625 C25.62031033 43.46162856 20.87291329 38.7931602 16 34 C15.01966797 33.03900391 15.01966797 33.03900391 14.01953125 32.05859375 C6.20555704 23.79613537 0 11.52494906 0 0 Z " fill="#CDBB87" transform="translate(268,563)"/>
<path d="M0 0 C2.24544873 0.4588723 4.49558813 0.84217484 6.75634766 1.21777344 C20.43695224 3.629299 33.26134722 8.42364183 46.17431641 13.44433594 C46.92712891 13.73630859 47.67994141 14.02828125 48.45556641 14.32910156 C56.69351854 17.57118624 64.93238221 21.29805303 72.17431641 26.44433594 C72.17431641 27.10433594 72.17431641 27.76433594 72.17431641 28.44433594 C67.53011221 27.0404391 63.38427324 25.07571188 59.11181641 22.81933594 C29.50972201 7.6531974 -2.60338028 0.25597245 -35.73608398 0.2590332 C-38.35791625 0.25686101 -40.97931682 0.23869446 -43.60107422 0.21972656 C-72.12839545 0.12477889 -100.84622007 5.32876558 -126.82568359 17.44433594 C-127.61313965 17.79415527 -128.4005957 18.14397461 -129.21191406 18.50439453 C-155.13137147 30.0246735 -177.39143336 45.91201124 -197.82568359 65.44433594 C-198.50244141 66.07984375 -199.17919922 66.71535156 -199.87646484 67.37011719 C-213.52032015 80.51212954 -224.56810259 96.9932262 -233.82568359 113.44433594 C-234.20998535 114.12254395 -234.59428711 114.80075195 -234.99023438 115.49951172 C-240.26603098 124.88620556 -244.55712845 134.26677822 -248.09008789 144.44042969 C-248.92403019 146.71225125 -249.86434229 148.92834509 -250.80224609 151.15917969 C-264.0939492 184.19569053 -265.54793791 225.70485384 -258.82568359 260.44433594 C-258.58297674 261.78017918 -258.34076583 263.11611266 -258.09912109 264.45214844 C-256.31388269 273.84917258 -254.06736207 283.14762873 -251.82568359 292.44433594 C-252.81568359 292.11433594 -253.80568359 291.78433594 -254.82568359 291.44433594 C-255.82227515 288.92005387 -256.5775267 286.55721443 -257.26318359 283.94433594 C-257.47491211 283.16058594 -257.68664062 282.37683594 -257.90478516 281.56933594 C-260.70210384 270.69879616 -262.3387816 259.55991734 -263.82568359 248.44433594 C-263.93243408 247.66058594 -264.03918457 246.87683594 -264.14916992 246.06933594 C-265.11843227 237.89404391 -265.0268207 229.66458897 -265.01318359 221.44433594 C-265.01128021 220.26933029 -265.01128021 220.26933029 -265.00933838 219.07058716 C-264.84135988 164.76147253 -244.6006595 114.12624634 -208.82568359 73.44433594 C-208.21337891 72.72117187 -207.60107422 71.99800781 -206.97021484 71.25292969 C-191.01834526 52.49716854 -171.20921794 37.48449815 -149.82568359 25.44433594 C-149.12523926 25.04359863 -148.42479492 24.64286133 -147.703125 24.22998047 C-104.28556923 -0.43011275 -49.24265058 -10.21540599 0 0 Z " fill="#AB9D7B" transform="translate(551.82568359375,281.5556640625)"/>
<path d="M0 0 C6.75620665 6.75620665 7.20455964 21.85930798 7.3125 30.875 C7.23867061 43.13357432 4.83037531 54.58865024 -3.69921875 63.84375 C-7.43320933 67.26727394 -11.18859825 69.42704174 -16 71 C-16.99 70.67 -17.98 70.34 -19 70 C-18.505 69.525625 -18.01 69.05125 -17.5 68.5625 C-15.25558671 64.72829397 -15.46434879 61.3470156 -16 57 C-16.46190199 55.42581678 -16.96362176 53.86288854 -17.5 52.3125 C-19.99729287 44.60450951 -20.80845736 35.60164398 -17.0625 28.1875 C-14.31952561 23.95548237 -10.71633846 20.66101434 -7.08984375 17.19140625 C-2.30290836 12.17183475 -0.56613817 6.79365809 0 0 Z " fill="#BEAC7A" transform="translate(279,628)"/>
<path d="M0 0 C1.32 0.33 2.64 0.66 4 1 C4.2094501 7.10197948 3.45175205 12.43386517 2.125 18.375 C-10.97083115 81.45209852 3.57728927 150.71156437 38.375 204.625 C40.2231008 207.43536505 42.10323916 210.22228217 44 213 C44.50885742 213.74620605 45.01771484 214.49241211 45.54199219 215.26123047 C53.64750516 227.12043333 53.64750516 227.12043333 63 238 C62.67 238.66 62.34 239.32 62 240 C52.04915932 229.25973981 42.92823069 218.35100401 35 206 C34.43796875 205.15179687 33.8759375 204.30359375 33.296875 203.4296875 C22.43298787 186.82926184 14.38425615 169.38398719 7 151 C6.71253906 150.30455078 6.42507813 149.60910156 6.12890625 148.89257812 C-10.74692924 107.98007966 -16.72258095 44.41852318 -0.91015625 2.08203125 C-0.45962891 1.05142578 -0.45962891 1.05142578 0 0 Z " fill="#CDBA8C" transform="translate(263,444)"/>
<path d="M0 0 C2.1385485 2.1385485 2.42655063 3.13275314 3 6 C-15.948665 18.51839579 -35.51862979 29.27386258 -56.83691406 37.19335938 C-58.77175421 37.91488441 -60.69534162 38.66641938 -62.6171875 39.421875 C-85.15521192 48.0128396 -110.32341297 52.08732296 -134.3984375 52.203125 C-135.354086 52.20882507 -136.3097345 52.21452515 -137.29434204 52.22039795 C-139.30608032 52.22977496 -141.31783346 52.23635255 -143.32958984 52.24023438 C-146.33329765 52.24986627 -149.33629786 52.28093046 -152.33984375 52.3125 C-170.3543911 52.41236384 -187.58235775 50.07559231 -205.125 46.0625 C-206.22585938 45.82337891 -207.32671875 45.58425781 -208.4609375 45.33789062 C-215.53820885 43.74885873 -222.24929128 41.65152181 -229 39 C-224.75797213 37.58599071 -221.46519772 39.05820354 -217.3125 40.25 C-208.60161311 42.64276451 -199.92940466 44.61013332 -191 46 C-190.00548828 46.16991455 -189.01097656 46.3398291 -187.98632812 46.51489258 C-177.33137489 48.16629253 -166.81509784 48.33896469 -156.05126953 48.31567383 C-153.03250271 48.31253381 -150.0147389 48.33598823 -146.99609375 48.36132812 C-128.7752952 48.42149398 -110.80116614 46.59667388 -93.0625 42.3125 C-91.9895166 42.05686279 -90.9165332 41.80122559 -89.81103516 41.5378418 C-58.05508955 33.72804869 -25.77107699 20.5202955 0 0 Z " fill="#AA996A" transform="translate(664,715)"/>
<path d="M0 0 C0.66 0 1.32 0 2 0 C-0.73121891 18.56490694 -13.71395384 39.40841731 -25 54 C-25.60279785 54.79132324 -25.60279785 54.79132324 -26.21777344 55.59863281 C-31.57230143 62.61936162 -37.09416399 69.39796022 -43.08203125 75.89453125 C-44.65097265 77.61685185 -46.11958759 79.36108928 -47.5625 81.1875 C-50.12020506 84.13869814 -52.83303658 86.58730964 -55.8046875 89.109375 C-57.25497305 90.35837536 -58.67809358 91.63971092 -60.0703125 92.953125 C-73.4881865 105.57621204 -88.67603573 115.5774701 -105 124 C-106.39720897 124.73814204 -107.79434567 125.4764209 -109.19140625 126.21484375 C-117.58759249 130.59027875 -125.98985255 134.04957388 -135 137 C-135.79664063 137.27328125 -136.59328125 137.5465625 -137.4140625 137.828125 C-138.84358574 138.31676204 -140.27726656 138.79340462 -141.71484375 139.2578125 C-143.36045212 139.79228359 -144.997677 140.35281891 -146.62890625 140.9296875 C-163.17732778 146.49617088 -181.36112282 149.11626171 -198.80078125 149.203125 C-199.71723923 149.20882507 -200.6336972 149.21452515 -201.57792664 149.22039795 C-203.51165637 149.22979191 -205.44540172 149.23635945 -207.37915039 149.24023438 C-210.26674243 149.24984767 -213.15359278 149.28088678 -216.04101562 149.3125 C-232.58072557 149.4074551 -248.57582637 147.5137152 -264.625 143.4375 C-265.59719482 143.19209473 -266.56938965 142.94668945 -267.57104492 142.69384766 C-275.65637513 140.55000524 -283.49057723 137.83008136 -291.3125 134.875 C-292.43414551 134.45532959 -293.55579102 134.03565918 -294.71142578 133.60327148 C-295.75153809 133.19536377 -296.79165039 132.78745605 -297.86328125 132.3671875 C-299.24447144 131.82747314 -299.24447144 131.82747314 -300.65356445 131.27685547 C-303.24898734 129.86450902 -304.42721315 128.47073121 -306 126 C-302.47619652 127.1212102 -299.0269637 128.36517668 -295.59375 129.734375 C-282.93133968 134.76977806 -270.26747401 138.88292873 -257 142 C-256.14325684 142.21172852 -255.28651367 142.42345703 -254.40380859 142.64160156 C-225.60671061 149.52063576 -191.78969773 148.43916957 -163 142 C-161.75452393 141.73509766 -161.75452393 141.73509766 -160.48388672 141.46484375 C-140.76189302 137.17659064 -121.74367642 129.52901141 -104 120 C-103.0925 119.54625 -102.185 119.0925 -101.25 118.625 C-86.13394421 110.88262996 -72.54243466 100.35990585 -60 89 C-58.90671675 88.02812053 -57.81296912 87.05676318 -56.71875 86.0859375 C-40.1686039 71.2482213 -26.92300112 53.29346037 -16 34 C-15.39115967 32.92685547 -15.39115967 32.92685547 -14.77001953 31.83203125 C-8.99666424 21.54538766 -4.27648414 10.98685154 0 0 Z " fill="#9E906E" transform="translate(722,580)"/>
<path d="M0 0 C18.70869984 22.56670857 16.92930185 73.64270755 14.42578125 100.84375 C13.75782621 107.24964683 12.91978279 113.62584095 12 120 C11.8772168 120.87043945 11.75443359 121.74087891 11.62792969 122.63769531 C10.13922936 132.98477773 7.91726256 142.95987809 5 153 C4.38125 153.12375 3.7625 153.2475 3.125 153.375 C0.80879168 153.87197356 0.80879168 153.87197356 -1 156 C-0.09354725 149.03462622 1.12195974 142.28914674 2.9375 135.5 C5.29979527 126.58274834 6.5602964 117.53114465 7.70166016 108.38696289 C7.88587894 106.91306187 8.08117767 105.44043949 8.29443359 103.97045898 C9.35977538 96.00717255 9.24110763 87.95707796 9.25 79.9375 C9.25167175 79.14264191 9.25334351 78.34778381 9.25506592 77.52883911 C9.25678538 63.84315301 8.32160252 50.50561379 6 37 C5.85038818 36.10667969 5.70077637 35.21335937 5.54663086 34.29296875 C4.26037393 26.88538436 2.49201144 19.63846924 0.59179688 12.3671875 C0.37201172 11.48546875 0.15222656 10.60375 -0.07421875 9.6953125 C-0.27619873 8.91172363 -0.47817871 8.12813477 -0.6862793 7.32080078 C-1.04725074 4.65045485 -0.65677482 2.59778154 0 0 Z " fill="#D8C395" transform="translate(761,428)"/>
<path d="M0 0 C-3.10638202 1.00489144 -4.87642825 0.99088164 -7.94921875 -0.07421875 C-8.70493164 -0.32768066 -9.46064453 -0.58114258 -10.23925781 -0.84228516 C-11.04717773 -1.12120605 -11.85509766 -1.40012695 -12.6875 -1.6875 C-50.96771856 -14.20413361 -92.30711661 -16.60243696 -132 -10 C-132.86931152 -9.86078125 -133.73862305 -9.7215625 -134.63427734 -9.578125 C-150.69600189 -6.93633364 -166.34141472 -2.32376715 -181.3125 4.0625 C-186.97504294 6.35732003 -190.28232249 6.03510555 -196 4 C-154.61092115 -37.38907885 -46.74603808 -17.3343971 0 0 Z " fill="#B09E71" transform="translate(607,266)"/>
<path d="M0 0 C3.30949515 1.43411456 5.39664885 3.20973364 7.875 5.8125 C10.1674489 8.17671986 12.34264596 10.26974256 14.9375 12.3125 C19.68536155 16.16211747 23.24822702 21.21991714 27 26 C27.73476563 26.89589844 28.46953125 27.79179687 29.2265625 28.71484375 C36.14941538 37.43568139 41.04511127 47.06837422 46 57 C46.99 57 47.98 57 49 57 C48.94779297 56.12988281 48.94779297 56.12988281 48.89453125 55.2421875 C48.7138655 50.02869013 49.01362654 46.4795602 52 42 C54.36018354 39.63981646 55.40113422 39.04083176 58.75 38.8125 C59.86375 38.9053125 59.86375 38.9053125 61 39 C59.96770516 41.61897025 58.90589141 44.21596715 57.78125 46.796875 C51.85164864 60.37959662 51.85164864 60.37959662 53.35546875 74.6640625 C53.95577266 75.98912356 54.56692739 77.3093096 55.1875 78.625 C55.82735157 80.03882337 56.46666943 81.45288839 57.10546875 82.8671875 C57.73686753 84.24484284 58.36837332 85.62244913 59 87 C60.01387518 89.24378188 61.01571683 91.49308028 62 93.75 C62.4125 94.67296875 62.825 95.5959375 63.25 96.546875 C64.06711378 99.219518 64.10227012 100.45100034 63 103 C62.01 103.495 62.01 103.495 61 104 C59.04234609 99.79104408 57.58450905 95.6536651 56.3125 91.1875 C48.55223921 65.73500287 33.6320231 37.44393884 14.58203125 18.609375 C11.35448723 15.34765124 8.53580565 11.84239522 5.6875 8.25 C5.13771484 7.56550781 4.58792969 6.88101562 4.02148438 6.17578125 C0 1.13019216 0 1.13019216 0 0 Z " fill="#C0AF82" transform="translate(698,326)"/>
<path d="M0 0 C0.99 0.33 1.98 0.66 3 1 C2.59273682 1.39678955 2.18547363 1.7935791 1.76586914 2.20239258 C-6.31630216 10.10442802 -14.14926446 17.9806863 -21 27 C-21.64098633 27.8343457 -21.64098633 27.8343457 -22.29492188 28.68554688 C-29.22550805 37.73954668 -35.40913689 47.06480175 -41 57 C-41.38430176 57.67820801 -41.76860352 58.35641602 -42.16455078 59.05517578 C-47.44034739 68.44186963 -51.73144486 77.82244228 -55.2644043 87.99609375 C-56.09834659 90.26791531 -57.0386587 92.48400915 -57.9765625 94.71484375 C-71.26826561 127.75135459 -72.72225432 169.2605179 -66 204 C-65.75729314 205.33584324 -65.51508224 206.67177672 -65.2734375 208.0078125 C-63.48819909 217.40483664 -61.24167848 226.7032928 -59 236 C-59.99 235.67 -60.98 235.34 -62 235 C-62.99659156 232.47571793 -63.7518431 230.11287849 -64.4375 227.5 C-64.64922852 226.71625 -64.86095703 225.9325 -65.07910156 225.125 C-67.87642025 214.25446022 -69.51309801 203.11558141 -71 192 C-71.10675049 191.21625 -71.21350098 190.4325 -71.32348633 189.625 C-72.29274867 181.44970797 -72.20113711 173.22025303 -72.1875 165 C-72.18559662 163.82499435 -72.18559662 163.82499435 -72.18365479 162.62625122 C-72.01569931 108.32457993 -51.78013323 57.67217052 -16 17 C-15.36449219 16.25363281 -14.72898437 15.50726563 -14.07421875 14.73828125 C-9.64727316 9.55824607 -4.86593145 4.76662673 0 0 Z " fill="#B0A487" transform="translate(359,338)"/>
<path d="M0 0 C1.19882812 0.16628906 1.19882812 0.16628906 2.421875 0.3359375 C3.02515625 0.43132812 3.6284375 0.52671875 4.25 0.625 C2.06354044 3.04550797 0.07940473 4.34181314 -2.8984375 5.6484375 C-3.72835205 6.02274902 -4.5582666 6.39706055 -5.41333008 6.78271484 C-6.30818115 7.18441895 -7.20303223 7.58612305 -8.125 8 C-34.859738 20.39610178 -59.39904716 38.30495417 -79.75 59.625 C-81.07 58.965 -82.39 58.305 -83.75 57.625 C-72.0506513 31.88643286 -33.01385309 13.37648285 -8.75 1.625 C-8.03714844 1.21378906 -7.32429688 0.80257813 -6.58984375 0.37890625 C-4.18953923 -0.60465802 -2.54847477 -0.3747757 0 0 Z " fill="#B9A778" transform="translate(413.75,270.375)"/>
<path d="M0 0 C4.65028292 1.02033508 9.29106471 2.0618923 13.91796875 3.18359375 C14.78228516 3.38919922 15.64660156 3.59480469 16.53710938 3.80664062 C18.25511552 4.21556913 19.97140834 4.63179159 21.68554688 5.05664062 C38.78115687 9.07104502 55.95507316 10.50386761 73.47680664 10.39111328 C76.43357562 10.37502136 79.3889747 10.39108847 82.34570312 10.41015625 C100.30445311 10.43019215 117.97929108 8.62248045 135.40748596 4.1847229 C141.63575972 2.64387213 141.63575972 2.64387213 145 4 C145 4.66 145 5.32 145 6 C141.63187539 8.41730342 138.7141426 9.48221323 134.6484375 10.1328125 C133.63136719 10.29910156 132.61429688 10.46539063 131.56640625 10.63671875 C130.51324219 10.79785156 129.46007812 10.95898438 128.375 11.125 C127.34503906 11.29386719 126.31507813 11.46273437 125.25390625 11.63671875 C115.04766792 13.26714927 104.93642999 14.15341378 94.6015625 14.203125 C93.645914 14.20882507 92.6902655 14.21452515 91.70565796 14.22039795 C89.69391968 14.22977496 87.68216654 14.23635255 85.67041016 14.24023438 C82.66670235 14.24986627 79.66370214 14.28093046 76.66015625 14.3125 C58.6456089 14.41236384 41.41764225 12.07559231 23.875 8.0625 C22.22371094 7.70381836 22.22371094 7.70381836 20.5390625 7.33789062 C13.46179115 5.74885873 6.75070872 3.65152181 0 1 C0 0.67 0 0.34 0 0 Z " fill="#A39265" transform="translate(435,753)"/>
<path d="M0 0 C1.93136736 2.89705105 2.68800796 4.9350108 3.62890625 8.2421875 C4.09079346 9.82567993 4.09079346 9.82567993 4.56201172 11.44116211 C4.89217285 12.57432861 5.22233398 13.70749512 5.5625 14.875 C13.26067288 40.49255326 24.93397107 63.93650291 40 86 C40.50885742 86.74620605 41.01771484 87.49241211 41.54199219 88.26123047 C49.64750516 100.12043333 49.64750516 100.12043333 59 111 C58.67 111.66 58.34 112.32 58 113 C48.04915932 102.25973981 38.92823069 91.35100401 31 79 C30.43796875 78.15179687 29.8759375 77.30359375 29.296875 76.4296875 C18.4382359 59.83728102 10.34722421 42.39126229 3 24 C2.67531738 23.19288574 2.35063477 22.38577148 2.01611328 21.55419922 C-2.46741869 10.28270727 -2.46741869 10.28270727 -1 5 C-0.814375 4.071875 -0.62875 3.14375 -0.4375 2.1875 C-0.293125 1.465625 -0.14875 0.74375 0 0 Z " fill="#BFAD87" transform="translate(267,571)"/>
<path d="M0 0 C0 0.99 0 1.98 0 3 C0.66 3.66 1.32 4.32 2 5 C-4.27868729 15.72940233 -13.48852397 24.13383695 -23 32 C-23.56831543 32.47147461 -24.13663086 32.94294922 -24.72216797 33.42871094 C-26.70341823 35.06563564 -28.6939216 36.69061791 -30.6875 38.3125 C-31.32977539 38.84093506 -31.97205078 39.36937012 -32.63378906 39.91381836 C-35.9563389 42.58887701 -38.86920986 44.69678705 -43 46 C-43.5534764 43.92446352 -44 42.15634036 -44 40 C-42.46296943 38.79276536 -40.86665431 37.66082023 -39.25 36.5625 C-33.67538668 32.61650602 -28.73720135 28.24880926 -23.765625 23.578125 C-21.57698942 21.53787149 -19.3607448 19.59948517 -17.0625 17.6875 C-10.86252623 12.34314894 -5.50006626 6.04504234 0 0 Z " fill="#B5A575" transform="translate(709,674)"/>
<path d="M0 0 C0.33 0 0.66 0 1 0 C1.01458252 0.7621582 1.02916504 1.52431641 1.04418945 2.30957031 C1.52365261 24.99173527 2.43005167 47.75871408 7.37109375 69.98046875 C8.26915517 74.29227916 8.70045677 78.61014236 9 83 C7.515 83.495 7.515 83.495 6 84 C-0.54092432 65.62311738 -3.21722918 46.74886545 -3.0625 27.3125 C-3.05798828 26.21744141 -3.05347656 25.12238281 -3.04882812 23.99414062 C-3.03719156 21.32936691 -3.02084564 18.66471483 -3 16 C-2.34 16.99 -1.68 17.98 -1 19 C-0.67 12.73 -0.34 6.46 0 0 Z " fill="#CDBB8E" transform="translate(259,493)"/>
<path d="M0 0 C-3.37693612 13.71510019 -8.1832207 26.67308161 -14.1875 39.4375 C-14.82957397 40.81494385 -14.82957397 40.81494385 -15.48461914 42.22021484 C-15.89574951 43.07437988 -16.30687988 43.92854492 -16.73046875 44.80859375 C-17.09551514 45.56970459 -17.46056152 46.33081543 -17.83666992 47.11499023 C-19 49 -19 49 -22 51 C-22.99 51 -23.98 51 -25 51 C-26 48 -26 48 -24.62890625 44.91015625 C-23.94675001 43.6240571 -23.25738664 42.3417657 -22.5625 41.0625 C-16.07310311 28.62016303 -10.7562293 15.51562902 -6.88671875 2.01953125 C-6.59410156 1.35308594 -6.30148437 0.68664062 -6 0 C-3 -1 -3 -1 0 0 Z " fill="#C4B283" transform="translate(765,582)"/>
<path d="M0 0 C0.66 0 1.32 0 2 0 C-0.73121891 18.56490694 -13.71395384 39.40841731 -25 54 C-25.40186523 54.52754883 -25.80373047 55.05509766 -26.21777344 55.59863281 C-31.57230143 62.61936162 -37.09416399 69.39796022 -43.08203125 75.89453125 C-44.65097265 77.61685185 -46.11958759 79.36108928 -47.5625 81.1875 C-50.11691533 84.13490231 -52.82669399 86.58105445 -55.79296875 89.1015625 C-58.08589125 91.07388167 -60.28657205 93.12659398 -62.5 95.1875 C-66.97110565 99.21916781 -71.64684657 102.922743 -76.4375 106.5625 C-77.48550781 107.36820435 -77.48550781 107.36820435 -78.5546875 108.19018555 C-79.21597656 108.68558838 -79.87726562 109.18099121 -80.55859375 109.69140625 C-81.14954834 110.13685791 -81.74050293 110.58230957 -82.34936523 111.04125977 C-84 112 -84 112 -87 112 C-87 111.34 -87 110.68 -87 110 C-84.96799472 108.44324633 -82.92969193 106.99523821 -80.8125 105.5625 C-73.48165836 100.46152603 -66.6862088 94.91314161 -60 89 C-59.46568359 88.52884766 -58.93136719 88.05769531 -58.38085938 87.57226562 C-41.13869054 72.289908 -27.32982045 54.01203142 -16 34 C-15.59410645 33.28457031 -15.18821289 32.56914063 -14.77001953 31.83203125 C-8.99666424 21.54538766 -4.27648414 10.98685154 0 0 Z " fill="#B0A484" transform="translate(722,580)"/>
<path d="M0 0 C0 0.99 0 1.98 0 3 C0.94978897 5.15028304 0.94978897 5.15028304 2 7 C1.52691406 7.44988281 1.05382812 7.89976562 0.56640625 8.36328125 C-10.44669766 19.07583262 -19.13008712 31.52275559 -28 44 C-28.61359375 43.81566406 -29.2271875 43.63132812 -29.859375 43.44140625 C-32.57817796 42.88077717 -33.6786882 43.59063212 -36 45 C-31.09319383 36.985024 -25.7694853 29.41651742 -20 22 C-19.278125 21.07058594 -18.55625 20.14117187 -17.8125 19.18359375 C-12.31960503 12.28804882 -6.33136685 6.1183489 0 0 Z " fill="#BDAD81" transform="translate(331,324)"/>
<path d="M0 0 C3.60549148 2.66492848 4.84539972 4.03804272 5.5625 8.5 C4.91877781 12.50538252 3.84054174 14.15945826 1 17 C-1.88861709 18.44430855 -3.79647701 18.37688506 -7 18 C-9.8125 15.5625 -9.8125 15.5625 -12 13 C-12.33 12.67 -12.66 12.34 -13 12 C-13.41194057 9.04775928 -13.5560236 6.90042627 -11.953125 4.3046875 C-7.97994337 -0.53324543 -6.08052971 -1.66916502 0 0 Z " fill="#C0AF7C" transform="translate(316,622)"/>
<path d="M0 0 C2.3904375 3.58565626 2.30536808 6.18165545 2.30078125 10.32421875 C2.30911232 11.41909355 2.30911232 11.41909355 2.31761169 12.53608704 C2.32947163 14.92009109 2.32308448 17.30349522 2.3125 19.6875 C2.31100952 20.50033447 2.30951904 21.31316895 2.3079834 22.15063477 C2.22606867 46.95245808 -1.57687471 71.0592603 -8 95 C-8.99 94.34 -9.98 93.68 -11 93 C-10.8138916 92.42967041 -10.6277832 91.85934082 -10.43603516 91.27172852 C-8.22614167 84.24298127 -6.72958379 77.1744893 -5.375 69.9375 C-5.05015625 68.25817383 -5.05015625 68.25817383 -4.71875 66.54492188 C-2.92138962 57.08659023 -1.842356 48.00044496 -1.90234375 38.37109375 C-1.90446617 37.05843285 -1.90446617 37.05843285 -1.90663147 35.71925354 C-1.91217281 32.95863238 -1.92471388 30.19809612 -1.9375 27.4375 C-1.9425226 25.55143347 -1.94708417 23.66536566 -1.95117188 21.77929688 C-1.96212293 17.18616583 -1.97934616 12.59309725 -2 8 C-1.67 8 -1.34 8 -1 8 C-0.67 5.36 -0.34 2.72 0 0 Z " fill="#251F12" transform="translate(769,486)"/>
<path d="M0 0 C9.81952425 11.84445439 13.82779961 38.929802 13 54 C12.29351988 56.72816853 11.45200468 58.56063214 10 61 C9.67 61 9.34 61 9 61 C8.91959473 60.33057373 8.83918945 59.66114746 8.75634766 58.97143555 C8.38262601 55.87636991 8.00383711 52.78194351 7.625 49.6875 C7.49867188 48.63498047 7.37234375 47.58246094 7.2421875 46.49804688 C5.81303296 34.88616622 3.54837668 23.68071239 0.59179688 12.3671875 C0.37201172 11.48546875 0.15222656 10.60375 -0.07421875 9.6953125 C-0.27619873 8.91172363 -0.47817871 8.12813477 -0.6862793 7.32080078 C-1.04725074 4.65045485 -0.65677482 2.59778154 0 0 Z " fill="#C3B285" transform="translate(761,428)"/>
<path d="M0 0 C0.33 0 0.66 0 1 0 C0.98428955 1.28350342 0.9685791 2.56700684 0.95239258 3.8894043 C0.89712001 8.75945481 0.86330499 13.62947922 0.83520508 18.49975586 C0.82033581 20.58736874 0.80003435 22.67495167 0.77368164 24.76245117 C0.45969795 50.31826057 5.03046474 74.24309489 11 99 C10.01 98.67 9.02 98.34 8 98 C7.00340844 95.47571793 6.2481569 93.11287849 5.5625 90.5 C5.35077148 89.71625 5.13904297 88.9325 4.92089844 88.125 C2.12353084 77.25427016 0.48793702 66.11559442 -1 55 C-1.16012573 53.83307617 -1.16012573 53.83307617 -1.32348633 52.64257812 C-2.22680431 45.06854243 -2.18610195 37.45782332 -2.18530273 29.84130859 C-2.18749559 27.50469908 -2.20573083 25.16855811 -2.22460938 22.83203125 C-2.25287549 15.04176543 -2.07497211 7.57100306 0 0 Z " fill="#C5B899" transform="translate(289,475)"/>
<path d="M0 0 C3.30949515 1.43411456 5.39664885 3.20973364 7.875 5.8125 C10.1674489 8.17671986 12.34264596 10.26974256 14.9375 12.3125 C19.68710348 16.16352985 23.24043911 21.22366304 27 26 C28.04994141 27.23943359 28.04994141 27.23943359 29.12109375 28.50390625 C34.79890422 35.49438483 38.94160584 43.109095 43.125 51.0625 C44.01493652 52.74206787 44.01493652 52.74206787 44.92285156 54.45556641 C45.46651367 55.51308105 46.01017578 56.5705957 46.5703125 57.66015625 C47.30918701 59.09307007 47.30918701 59.09307007 48.06298828 60.55493164 C49 63 49 63 48 66 C47.56300781 65.18547363 47.56300781 65.18547363 47.1171875 64.35449219 C39.92760789 50.99837849 32.46515294 38.38447257 23.25 26.3125 C22.78980469 25.69906738 22.32960938 25.08563477 21.85546875 24.45361328 C19.32028026 21.20794377 17.892754 19.9655256 14 19 C12.18796635 16.97017385 10.59271302 15.00127381 9 12.8125 C8.57460938 12.24724609 8.14921875 11.68199219 7.7109375 11.09960938 C5.00953612 7.48254894 2.47472739 3.77510498 0 0 Z " fill="#23180D" transform="translate(698,326)"/>
<path d="M0 0 C2.2421875 0.03125 2.2421875 0.03125 5 1 C6.61308772 3.50789487 7.87002437 5.8206871 9.125 8.5 C18.14296967 26.57030806 29.94898289 45.40475336 44 60 C43.505 60.99 43.505 60.99 43 62 C33.04967888 51.26030059 23.92468249 40.35270095 16 28 C15.42636719 27.12859375 14.85273438 26.2571875 14.26171875 25.359375 C10.65050841 19.81388417 7.31389698 14.13625848 4.0625 8.375 C3.66039307 7.66311523 3.25828613 6.95123047 2.84399414 6.21777344 C0 1.12793415 0 1.12793415 0 0 Z " fill="#AF9D77" transform="translate(282,622)"/>
<path d="M0 0 C2.91405058 0.33247557 3.92194053 0.91761248 5.97265625 3.08203125 C7.00712891 4.43361328 7.00712891 4.43361328 8.0625 5.8125 C15.63609828 15.38176001 23.74382912 24.05550545 32.98046875 32.0390625 C33.64691406 32.68617188 34.31335938 33.33328125 35 34 C35 34.66 35 35.32 35 36 C30.4567905 34.53336094 27.231399 31.9661864 23.6875 28.875 C23.11427002 28.38 22.54104004 27.885 21.95043945 27.375 C1.60202495 9.65727718 1.60202495 9.65727718 0 0 Z " fill="#0E0904" transform="translate(311,670)"/>
<path d="M0 0 C4.65028292 1.02033508 9.29106471 2.0618923 13.91796875 3.18359375 C40.64349361 9.60807196 66.62154089 10.64568132 94 11 C94 11.33 94 11.66 94 12 C80.635 12.495 80.635 12.495 67 13 C67 13.33 67 13.66 67 14 C61.11145971 14.12113569 55.51336805 13.71769648 49.6875 12.875 C48.79885254 12.74665771 47.91020508 12.61831543 46.99462891 12.48608398 C39.22604006 11.29956746 31.55073418 9.74191365 23.875 8.0625 C22.20570435 7.70164307 22.20570435 7.70164307 20.50268555 7.33349609 C13.43969259 5.73949678 6.73901625 3.64692928 0 1 C0 0.67 0 0.34 0 0 Z " fill="#8B7F5E" transform="translate(435,753)"/>
<path d="M0 0 C9.90272625 14.85408938 5.26567489 42.81696556 5 60 C4.34 60 3.68 60 3 60 C2.98541748 59.38406982 2.97083496 58.76813965 2.95581055 58.13354492 C2.59641168 44.33288228 1.72712276 30.73181896 -0.0715332 17.0378418 C-0.81929655 11.07601794 -1.07692419 5.92308305 0 0 Z " fill="#1A150A" transform="translate(773,460)"/>
<path d="M0 0 C3.375 0.875 3.375 0.875 5.375 2.875 C6.05181895 9.98159898 6.05181895 9.98159898 3.8125 12.9375 C0.3242992 14.27911569 -2.05025344 13.80178615 -5.625 12.875 C-7.95249345 9.38375983 -8.12799316 7.98277749 -7.625 3.875 C-5.30290294 0.25252859 -4.34513693 -0.14983231 0 0 Z " fill="#AC9C6B" transform="translate(451.625,735.125)"/>
<path d="M0 0 C7.64178411 -0.27640496 14.7407862 0.75240325 22.25 2.125 C24.09585693 2.45951172 24.09585693 2.45951172 25.97900391 2.80078125 C41.774822 5.76851767 56.98619157 10.29727613 72 16 C68.89361798 17.00489144 67.12357175 16.99088164 64.05078125 15.92578125 C62.91721191 15.54558838 62.91721191 15.54558838 61.76074219 15.15771484 C60.5488623 14.7393335 60.5488623 14.7393335 59.3125 14.3125 C40.12597263 8.03900569 20.976754 5.35532954 1 3 C0.67 2.01 0.34 1.02 0 0 Z " fill="#908466" transform="translate(535,250)"/>
<path d="M0 0 C1.02948775 3.1546257 0.97361399 4.94384244 -0.1171875 8.0625 C-0.39022705 8.85027832 -0.6632666 9.63805664 -0.94458008 10.44970703 C-1.25161865 11.29130371 -1.55865723 12.13290039 -1.875 13 C-2.18655029 13.87124512 -2.49810059 14.74249023 -2.8190918 15.64013672 C-12.14739547 41.14739547 -12.14739547 41.14739547 -17 46 C-16.34 43.03 -15.68 40.06 -15 37 C-16.32 36.67 -17.64 36.34 -19 36 C-19.33 34.35 -19.66 32.7 -20 31 C-19.34 32.32 -18.68 33.64 -18 35 C-17.34 35 -16.68 35 -16 35 C-15.74992188 34.33097656 -15.49984375 33.66195312 -15.2421875 32.97265625 C-14.0253033 30.06055286 -12.63400825 27.27990655 -11.18212891 24.47900391 C-7.7602811 17.8708073 -4.88026959 11.43045738 -2.7890625 4.2578125 C-2 2 -2 2 0 0 Z " fill="#211A0F" transform="translate(759,578)"/>
<path d="M0 0 C3.375 0.9375 3.375 0.9375 5.375 3.9375 C5.1875 7.5 5.1875 7.5 4.375 10.9375 C1.375 12.9375 1.375 12.9375 -2.1875 12.75 C-5.625 11.9375 -5.625 11.9375 -7.625 8.9375 C-8.12951649 5.65814281 -7.90022753 4.35584584 -6.0625 1.5625 C-3.625 -0.0625 -3.625 -0.0625 0 0 Z " fill="#B3A574" transform="translate(747.625,273.0625)"/>
<path d="M0 0 C0.33 0 0.66 0 1 0 C1.44279522 15.77883729 1.24234701 31.160818 -0.875 46.8125 C-1.04870117 48.09713135 -1.22240234 49.3817627 -1.40136719 50.70532227 C-2.33357022 57.21480472 -3.46536816 63.60570068 -5 70 C-7.60298548 66.09552179 -6.90362292 63.33535806 -6.35546875 58.90234375 C-6.26622635 58.11227432 -6.17698395 57.3222049 -6.08503723 56.50819397 C-5.89435203 54.83906715 -5.6981412 53.17056368 -5.49682617 51.50268555 C-5.18841478 48.94508608 -4.89644186 46.38602802 -4.60742188 43.82617188 C-4.42022816 42.2056183 -4.23210847 40.58517136 -4.04296875 38.96484375 C-3.95436081 38.19712143 -3.86575287 37.42939911 -3.77445984 36.63841248 C-3.11721514 31.23443028 -3.11721514 31.23443028 -2 29 C-1.34 29 -0.68 29 0 29 C0 19.43 0 9.86 0 0 Z " fill="#332D1B" transform="translate(778,491)"/>
<path d="M0 0 C3.2049311 3.11636651 6.08009966 6.27874396 8.8125 9.8125 C14.76184558 17.18888456 21.55388099 23.72241221 28.31494141 30.34716797 C30.22289816 32.21863526 32.11505741 34.10536619 34 36 C31.02374286 34.91772467 28.17736886 33.65710745 25.375 32.1875 C24.80523437 31.89230469 24.23546875 31.59710937 23.6484375 31.29296875 C22 30 22 30 20.5859375 27.63671875 C18.80603887 24.67752768 16.86217307 22.87211783 14.25 20.625 C1.2638009 9.19562594 1.2638009 9.19562594 0 4 C0 2.68 0 1.36 0 0 Z " fill="#362E1F" transform="translate(324,677)"/>
<path d="M0 0 C0.33 0 0.66 0 1 0 C2.19388403 32.51428851 2.19388403 32.51428851 2 46 C1.67 46 1.34 46 1 46 C0.67 44.35 0.34 42.7 0 41 C-0.66 42.32 -1.32 43.64 -2 45 C-2.8410478 41.3535194 -3.11764968 38.00049093 -3.09765625 34.26171875 C-3.09443359 33.19501953 -3.09121094 32.12832031 -3.08789062 31.02929688 C-3.07951172 29.92650391 -3.07113281 28.82371094 -3.0625 27.6875 C-3.05798828 26.56537109 -3.05347656 25.44324219 -3.04882812 24.28710938 C-3.03707313 21.5246849 -3.02064077 18.76237002 -3 16 C-2.34 16.99 -1.68 17.98 -1 19 C-0.67 12.73 -0.34 6.46 0 0 Z " fill="#DFCD9B" transform="translate(259,493)"/>
<path d="M0 0 C0 0.33 0 0.66 0 1 C-0.85005615 1.01981934 -1.7001123 1.03963867 -2.57592773 1.06005859 C-24.20929792 1.59002273 -45.68018298 2.26479306 -66.765625 7.71484375 C-69 8 -69 8 -72 6 C-47.90524664 -0.88921105 -24.81279048 -1.29827759 0 0 Z " fill="#AA9976" transform="translate(524,280)"/>
<path d="M0 0 C2.879501 0.58113566 4.58840198 1.4687246 6.39550781 3.80126953 C7.88222191 6.18449203 9.26611435 8.60418626 10.625 11.0625 C11.34042969 12.29516602 11.34042969 12.29516602 12.0703125 13.55273438 C15.08242981 18.86995812 17.30603166 24.1295235 19 30 C16.17738511 27.50307144 14.19503944 24.84143595 12.1875 21.6875 C9.27367 17.19103137 5.84195955 13.69643078 2 10 C-0.25950365 7.5218347 -0.93909587 6.65471945 -1.25 3.3125 C-1 1 -1 1 0 0 Z " fill="#C4B283" transform="translate(723,365)"/>
<path d="M0 0 C8.76902244 8.22095854 14.9904938 17.91922509 20.96582031 28.23730469 C22.8722179 31.48664147 24.89465983 34.66654473 26.90625 37.8515625 C28.11522294 40.22633077 28.59496204 42.37645868 29 45 C28.01 45 27.02 45 26 45 C25.64550781 44.23300781 25.29101562 43.46601563 24.92578125 42.67578125 C21.18635777 34.88003399 16.98654665 27.47904364 12.4375 20.125 C11.62502808 18.80689331 11.62502808 18.80689331 10.79614258 17.4621582 C7.7810643 12.63940242 4.6248698 8.04429579 1.08618164 3.58935547 C0 2 0 2 0 0 Z " fill="#150E06" transform="translate(714,346)"/>
<path d="M0 0 C0.33 0 0.66 0 1 0 C1.16604736 0.589021 1.33209473 1.17804199 1.50317383 1.78491211 C2.27077337 4.50306117 3.04161865 7.22027994 3.8125 9.9375 C4.07353516 10.86369141 4.33457031 11.78988281 4.60351562 12.74414062 C6.0720841 17.911326 7.63316798 23.01167817 9.4375 28.07226562 C10.21806216 30.74731718 10.21242548 33.23846876 10 36 C8 35 8 35 6.921875 32.296875 C6.53515625 31.12640625 6.1484375 29.9559375 5.75 28.75 C3.61572626 22.44935581 1.03787475 16.53918714 -1.86328125 10.546875 C-3 8 -3 8 -3 6 C-2.34 6 -1.68 6 -1 6 C-1.0309375 4.7934375 -1.0309375 4.7934375 -1.0625 3.5625 C-1 1 -1 1 0 0 Z " fill="#1D190C" transform="translate(754,393)"/>
<path d="M0 0 C1.875 1.1875 1.875 1.1875 3 3 C3.42822025 5.85480169 3.40659584 7.34492892 1.875 9.8125 C-0.87155972 11.55198782 -2.81846974 11.39769128 -6 11 C-7.875 9.8125 -7.875 9.8125 -9 8 C-9.42822025 5.14519831 -9.40659584 3.65507108 -7.875 1.1875 C-5.12844028 -0.55198782 -3.18153026 -0.39769128 0 0 Z " fill="#C2AF85" transform="translate(641,347)"/>
<path d="M0 0 C-0.33 0.66 -0.66 1.32 -1 2 C-5.43581477 3.35193872 -10.03104128 3.14458798 -14.625 3.1328125 C-15.4495166 3.13376923 -16.2740332 3.13472595 -17.12353516 3.13571167 C-18.86165443 3.13639024 -20.59977627 3.13455854 -22.33789062 3.13037109 C-24.99094359 3.12501827 -27.64382727 3.13032705 -30.296875 3.13671875 C-31.98958371 3.13605791 -33.68229231 3.13477663 -35.375 3.1328125 C-36.55956787 3.13584885 -36.55956787 3.13584885 -37.76806641 3.13894653 C-41.63562959 3.12256654 -45.24081171 2.94260523 -49 2 C-49 1.67 -49 1.34 -49 1 C-14.30433296 -0.19388403 -14.30433296 -0.19388403 0 0 Z " fill="#AF9C6D" transform="translate(546,764)"/>
<path d="M0 0 C3.0625 0.3125 3.0625 0.3125 5 1.4375 C6.0625 3.3125 6.0625 3.3125 5.875 6.375 C5.0625 9.3125 5.0625 9.3125 3.0625 11.3125 C0.25265752 11.67273622 -1.31991919 11.69582602 -3.75 10.1875 C-5.46599028 7.47804166 -5.271228 5.44954316 -4.9375 2.3125 C-2.9375 0.3125 -2.9375 0.3125 0 0 Z " fill="#A99B6B" transform="translate(432.9375,730.6875)"/>
<path d="M0 0 C0.33 0 0.66 0 1 0 C2.05648755 7.71152724 2.11624053 15.28665821 2.0625 23.0625 C2.05798828 24.30966797 2.05347656 25.55683594 2.04882812 26.84179688 C2.03713163 29.89458221 2.02074086 32.94726498 2 36 C0.02880859 34.90600586 0.02880859 34.90600586 -2 33 C-2.48583984 30.06079102 -2.48583984 30.06079102 -2.4609375 26.50390625 C-2.45707031 25.22322266 -2.45320312 23.94253906 -2.44921875 22.62304688 C-2.43681152 21.956521 -2.4244043 21.28999512 -2.41162109 20.60327148 C-2.37518649 18.57289222 -2.37060129 16.54434346 -2.37109375 14.51367188 C-2.27306675 3.68168791 -2.27306675 3.68168791 0 0 Z " fill="#B6A476" transform="translate(774,486)"/>
<path d="M0 0 C0.33 0 0.66 0 1 0 C2.09975574 6.97457998 1.70154745 12.66730753 0.3125 19.5625 C0.13041992 20.51398926 -0.05166016 21.46547852 -0.23925781 22.44580078 C-1.85604591 30.70861408 -3.81072529 38.87173539 -6 47 C-6.99 46.34 -7.98 45.68 -9 45 C-8.8138916 44.42967041 -8.6277832 43.85934082 -8.43603516 43.27172852 C-6.22614167 36.24298127 -4.72958379 29.1744893 -3.375 21.9375 C-3.05015625 20.25817383 -3.05015625 20.25817383 -2.71875 18.54492188 C-1.54560025 12.37140236 -0.59580314 6.25593294 0 0 Z " fill="#3D341D" transform="translate(767,534)"/>
<path d="M0 0 C4.15844853 3.02568119 7.14727229 6.48171862 10.125 10.625 C10.59365479 11.27090088 11.06230957 11.91680176 11.54516602 12.58227539 C18.87824976 22.85494057 25.48376976 33.64757257 31 45 C30.34 45.66 29.68 46.32 29 47 C28.69449219 46.34257812 28.38898437 45.68515625 28.07421875 45.0078125 C21.6118177 31.57329989 13.94627391 18.83045873 4.44067383 7.32666016 C2.413341 4.86962701 1.01885319 3.05655957 0 0 Z " fill="#92876E" transform="translate(714,344)"/>
<path d="M0 0 C0.33 0.99 0.66 1.98 1 3 C-5.55298566 9.30476651 -12.30855712 15.19579575 -19.5625 20.6875 C-20.25279297 21.21633789 -20.94308594 21.74517578 -21.65429688 22.29003906 C-22.30591797 22.77569336 -22.95753906 23.26134766 -23.62890625 23.76171875 C-24.20713135 24.19444092 -24.78535645 24.62716309 -25.38110352 25.07299805 C-27 26 -27 26 -30 26 C-30 25.34 -30 24.68 -30 24 C-27.96801095 22.44325876 -25.92992719 20.99486908 -23.8125 19.5625 C-18.60675805 15.95069422 -13.63238293 12.17632511 -8.8125 8.0625 C-8.27278564 7.60238525 -7.73307129 7.14227051 -7.17700195 6.66821289 C-4.69435887 4.52887619 -2.27079181 2.36443271 0 0 Z " fill="#AB9E7D" transform="translate(665,666)"/>
<path d="M0 0 C2.64760187 3.26576442 5.17668127 6.58277216 7.625 10 C11.19838859 14.95035224 14.89263321 19.79186272 18.67431641 24.58398438 C20.77739636 27.27847692 22.62395005 29.86230368 24 33 C17.9723856 28.51792776 13.62890887 22.87081125 9 17 C8.34257812 16.1853125 7.68515625 15.370625 7.0078125 14.53125 C3.55071942 10.19875567 0.60366778 5.89489542 -2 1 C-1.34 0.67 -0.68 0.34 0 0 Z " fill="#8D8465" transform="translate(302,651)"/>
<path d="M0 0 C0.33 0 0.66 0 1 0 C1.15855469 1.00675781 1.31710937 2.01351562 1.48046875 3.05078125 C2.97286612 12.15955142 4.922126 21.0285204 7.3737793 29.92895508 C9 35.83575213 9 35.83575213 9 38 C8.01 37.67 7.02 37.34 6 37 C4.98638888 34.19076324 4.17055867 31.50828733 3.4375 28.625 C3.22206543 27.80660645 3.00663086 26.98821289 2.78466797 26.14501953 C-1.67912042 8.89933823 -1.67912042 8.89933823 0 0 Z " fill="#B4AA8C" transform="translate(291,536)"/>
<path d="M0 0 C2.5625 0.3125 2.5625 0.3125 4.4375 1.5 C5.5625 3.3125 5.5625 3.3125 5.375 5.875 C4.5625 8.3125 4.5625 8.3125 2.5625 10.3125 C-3.00568182 9.74431818 -3.00568182 9.74431818 -4.4375 8.3125 C-4.625 5.375 -4.625 5.375 -4.4375 2.3125 C-2.4375 0.3125 -2.4375 0.3125 0 0 Z " fill="#C3AF83" transform="translate(654.4375,347.6875)"/>
<path d="M0 0 C0.33 0 0.66 0 1 0 C0.6143236 5.77184685 -0.22410523 11.29244361 -1.5 16.9375 C-2.85145795 22.95643226 -3.63581476 28.84652526 -4 35 C-4.99 34.34 -5.98 33.68 -7 33 C-6.14610283 24.55091224 -5.01916633 16.30635039 -2.9375 8.0625 C-2.7631543 7.37091797 -2.58880859 6.67933594 -2.40917969 5.96679688 C-1.14365308 1.14365308 -1.14365308 1.14365308 0 0 Z " fill="#AC9F80" transform="translate(295,445)"/>
<path d="M0 0 C24.28683616 9.19944996 24.28683616 9.19944996 32 15 C32 15.66 32 16.32 32 17 C27.14752094 15.53524239 22.85242219 13.50864425 18.375 11.1875 C11.70014647 7.78183589 4.9759381 4.74809683 -2 2 C-1.34 1.34 -0.68 0.68 0 0 Z " fill="#A29473" transform="translate(592,293)"/>
<path d="M0 0 C8.11065972 0.81106597 16.08818391 2.15058819 24.1171875 3.5390625 C30.07030292 4.55397022 35.99050747 5.39905075 42 6 C42 6.33 42 6.66 42 7 C27.5657785 7.44489039 13.95552859 5.58446796 0 2 C0 1.34 0 0.68 0 0 Z " fill="#A59574" transform="translate(456,721)"/>
<path d="M0 0 C1 3 1 3 0.00390625 5.26171875 C-0.47175781 6.06222656 -0.94742188 6.86273437 -1.4375 7.6875 C-1.91058594 8.49574219 -2.38367188 9.30398438 -2.87109375 10.13671875 C-3.42990234 11.05904297 -3.42990234 11.05904297 -4 12 C-4.99 12 -5.98 12 -7 12 C-7.99 12.33 -8.98 12.66 -10 13 C-9.38984718 8.85096085 -8.28027923 5.53836432 -6 2 C-2.8125 0.625 -2.8125 0.625 0 0 Z " fill="#C3B188" transform="translate(749,620)"/>
<path d="M0 0 C4.30573281 5.14410447 7.22208261 10.70078351 10.3125 16.625 C10.87517578 17.67429687 11.43785156 18.72359375 12.01757812 19.8046875 C12.54416016 20.81015625 13.07074219 21.815625 13.61328125 22.8515625 C14.09579346 23.76760254 14.57830566 24.68364258 15.07543945 25.62744141 C16 28 16 28 15 31 C14.69296143 30.43079834 14.38592285 29.86159668 14.06958008 29.27514648 C12.65535906 26.65996631 11.23399023 24.04873558 9.8125 21.4375 C9.08836914 20.09461914 9.08836914 20.09461914 8.34960938 18.72460938 C6.12406758 14.64693884 3.91601949 10.77892355 1.07421875 7.09765625 C-1 4 -1 4 -0.62963867 1.80639648 C-0.42185791 1.21028564 -0.21407715 0.6141748 0 0 Z " fill="#2C230F" transform="translate(731,361)"/>
<path d="M0 0 C6.53637464 5.00658483 11.58614812 11.06394704 16 18 C16 18.99 16 19.98 16 21 C15.34 21 14.68 21 14 21 C12.4979541 19.1762979 11.07283831 17.28886233 9.6875 15.375 C7.20562172 11.96721899 4.73494803 8.59668699 1.9375 5.4375 C0 3 0 3 0 0 Z " fill="#151006" transform="translate(715,342)"/>
<path d="M0 0 C4.55555556 0.55555556 4.55555556 0.55555556 6 2 C6.1875 4.4375 6.1875 4.4375 6 7 C5.34 7.66 4.68 8.32 4 9 C-0.55555556 8.44444444 -0.55555556 8.44444444 -2 7 C-2.1875 4.5625 -2.1875 4.5625 -2 2 C-1.34 1.34 -0.68 0.68 0 0 Z " fill="#AA9C70" transform="translate(284,716)"/>
<path d="M0 0 C0.66 0 1.32 0 2 0 C4.08295608 2.29364589 5.92338781 4.74208041 7.8203125 7.19140625 C9.2204241 8.9954927 10.65071339 10.7767741 12.1171875 12.52734375 C12.75914062 13.30207031 13.40109375 14.07679688 14.0625 14.875 C14.94615234 15.92300781 14.94615234 15.92300781 15.84765625 16.9921875 C17 19 17 19 16.57202148 21.12548828 C16.28887085 22.05337158 16.28887085 22.05337158 16 23 C0 3.04903678 0 3.04903678 0 0 Z " fill="#191509" transform="translate(307,657)"/>
<path d="M0 0 C0.99 0.66 1.98 1.32 3 2 C-3.56654456 4.3030887 -9.03672362 5.33693273 -16 5 C-16.33 4.34 -16.66 3.68 -17 3 C-11.295049 0.51056684 -6.26354058 -0.9512675 0 0 Z " fill="#B2A174" transform="translate(460,256)"/>
<path d="M0 0 C1.54424986 0.05334504 3.08852078 0.1060841 4.6328125 0.15820312 C8.38047677 0.28598716 12.12779 0.42195572 15.875 0.5625 C15.875 0.8925 15.875 1.2225 15.875 1.5625 C10.71570325 1.73076282 5.55624367 1.89125089 0.39648438 2.04467773 C-1.3571618 2.09790187 -3.11074593 2.15321459 -4.86425781 2.21069336 C-7.39113998 2.29315404 -9.91815327 2.36799166 -12.4453125 2.44140625 C-13.61285568 2.48195885 -13.61285568 2.48195885 -14.8039856 2.52333069 C-19.05178621 2.63863977 -22.9362151 2.42763847 -27.125 1.5625 C-27.125 1.2325 -27.125 0.9025 -27.125 0.5625 C-18.04159009 -0.65644666 -9.1242452 -0.34421862 0 0 Z " fill="#8F8260" transform="translate(508.125,279.4375)"/>
<path d="M0 0 C3 0.125 3 0.125 4 1.125 C4.1875 3.5625 4.1875 3.5625 4 6.125 C3.34 6.785 2.68 7.445 2 8.125 C-2.55555556 7.56944444 -2.55555556 7.56944444 -4 6.125 C-4.125 3.625 -4.125 3.625 -4 1.125 C-3 0.125 -3 0.125 0 0 Z " fill="#C1AC81" transform="translate(330,626.875)"/>
<path d="M0 0 C0.33 1.32 0.66 2.64 1 4 C1.66 4 2.32 4 3 4 C2.59683075 10.31631828 0.28767869 14.64993984 -3 20 C-4.27865038 16.16404885 -3.45186114 13.27079924 -2.625 9.4375 C-2.48578125 8.75236328 -2.3465625 8.06722656 -2.203125 7.36132812 C-1.15022321 2.30044643 -1.15022321 2.30044643 0 0 Z " fill="#D0BE88" transform="translate(776,544)"/>
<path d="M0 0 C4.33034194 3.84919283 6.6560756 7.72289646 9 13 C7.68 13.99 6.36 14.98 5 16 C5 15.01 5 14.02 5 13 C4.34 13 3.68 13 3 13 C2.01 8.71 1.02 4.42 0 0 Z " fill="#CBB889" transform="translate(771,450)"/>
<path d="M0 0 C5 1 5 1 6.58203125 3.1796875 C6.98808594 4.06914063 7.39414062 4.95859375 7.8125 5.875 C8.44091797 7.20144531 8.44091797 7.20144531 9.08203125 8.5546875 C10 11 10 11 10 14 C9.01 14 8.02 14 7 14 C4.69 9.38 2.38 4.76 0 0 Z " fill="#B9A880" transform="translate(282,622)"/>
<path d="M0 0 C-0.23771118 0.85609863 -0.23771118 0.85609863 -0.48022461 1.72949219 C-0.99361343 3.97210188 -1.20165896 6.03317915 -1.31640625 8.328125 C-1.35830078 9.12734375 -1.40019531 9.9265625 -1.44335938 10.75 C-1.50233398 11.9875 -1.50233398 11.9875 -1.5625 13.25 C-1.60568359 14.09046875 -1.64886719 14.9309375 -1.69335938 15.796875 C-1.79908543 17.86440671 -1.90001295 19.93218281 -2 22 C-2.33 22 -2.66 22 -3 22 C-3.33 16.39 -3.66 10.78 -4 5 C-6.64 7.64 -9.28 10.28 -12 13 C-12.66 12.67 -13.32 12.34 -14 12 C-12.04761147 9.99387601 -10.08862178 7.99507567 -8.125 6 C-7.29162109 5.14148438 -7.29162109 5.14148438 -6.44140625 4.265625 C-2.2265625 0 -2.2265625 0 0 0 Z " fill="#B09F7C" transform="translate(810,408)"/>
<path d="M0 0 C0.99 0.33 1.98 0.66 3 1 C2.49210937 1.51046875 1.98421875 2.0209375 1.4609375 2.546875 C-4.14398745 8.46668337 -7.68459016 14.57800298 -11 22 C-12.1684996 18.5175637 -12.00352498 18.00866558 -10.5 14.3125 C-7.73781381 9.15641911 -4.14519738 4.14519738 0 0 Z " fill="#130F06" transform="translate(464,373)"/>
<path d="M0 0 C0.625 2.375 0.625 2.375 1 5 C0.34 5.66 -0.32 6.32 -1 7 C-3.625 6.625 -3.625 6.625 -6 6 C-6 4.02 -6 2.04 -6 0 C-3.50907189 -1.24546405 -2.58919267 -0.7767578 0 0 Z " fill="#AE9B71" transform="translate(301,720)"/>
<path d="M0 0 C0.33 0 0.66 0 1 0 C1.33 8.58 1.66 17.16 2 26 C-2.47102377 17.05795247 -2.15105533 9.63010925 0 0 Z " fill="#B1A178" transform="translate(763,401)"/>
<path d="M0 0 C-3.3835381 2.94367815 -6.71373898 4.03313776 -11 5.25 C-12.216875 5.60578125 -13.43375 5.9615625 -14.6875 6.328125 C-17.71579918 6.94235549 -19.17954375 7.09997794 -22 6 C-20.0848421 5.18395001 -18.16781166 4.37229368 -16.25 3.5625 C-15.18265625 3.11003906 -14.1153125 2.65757812 -13.015625 2.19140625 C-8.43028672 0.37984126 -4.94412417 -0.11236646 0 0 Z " fill="#AA9E78" transform="translate(455,287)"/>
<path d="M0 0 C5.78702026 5.42533149 11.71961725 11.71586805 15 19 C14.01 19.33 13.02 19.66 12 20 C11.55269531 19.28714844 11.10539063 18.57429688 10.64453125 17.83984375 C6.50848483 11.28395292 6.50848483 11.28395292 2.0625 4.9375 C0 2 0 2 0 0 Z " fill="#191008" transform="translate(714,346)"/>
<path d="M0 0 C1.67542976 0.28604898 3.34385343 0.61781233 5 1 C5.38218767 2.65614657 5.71395102 4.32457024 6 6 C5 7 5 7 2.5625 7.1875 C0 7 0 7 -2 5 C-1.46428571 1.46428571 -1.46428571 1.46428571 0 0 Z " fill="#B6A67C" transform="translate(649,335)"/>
<path d="M0 0 C0 1.32 0 2.64 0 4 C-4.1196377 5.29243536 -7.66831683 6.26252625 -12 6 C-11.01 5.67 -10.02 5.34 -9 5 C-9.33 4.01 -9.66 3.02 -10 2 C-6.49223216 0.39644899 -3.85645121 -0.22036864 0 0 Z " fill="#AD9C6B" transform="translate(589,754)"/>
<path d="M0 0 C0.66 0 1.32 0 2 0 C0.52278578 3.45201639 -1.43794001 5.64961936 -4.125 8.25 C-4.84945312 8.95640625 -5.57390625 9.6628125 -6.3203125 10.390625 C-6.87460937 10.92171875 -7.42890625 11.4528125 -8 12 C-8.99 11.67 -9.98 11.34 -11 11 C-10.28972656 10.37351562 -9.57945312 9.74703125 -8.84765625 9.1015625 C-7.46900391 7.87566406 -7.46900391 7.87566406 -6.0625 6.625 C-5.14597656 5.81289063 -4.22945312 5.00078125 -3.28515625 4.1640625 C-0.96398605 2.21290653 -0.96398605 2.21290653 0 0 Z M-13 12 C-12.34 12.33 -11.68 12.66 -11 13 C-12.32 14.32 -13.64 15.64 -15 17 C-15.99 16.67 -16.98 16.34 -18 16 C-16.35 14.68 -14.7 13.36 -13 12 Z " fill="#120E06" transform="translate(596,632)"/>
<path d="M0 0 C1.42308385 3.80101107 0.56065145 6.34806588 -0.6875 10.125 C-1.02136719 11.17945313 -1.35523438 12.23390625 -1.69921875 13.3203125 C-3 16 -3 16 -5.14453125 17.3671875 C-5.75683594 17.57601562 -6.36914062 17.78484375 -7 18 C-1.67010309 1.67010309 -1.67010309 1.67010309 0 0 Z " fill="#201B0B" transform="translate(759,578)"/>
<path d="M0 0 C0.66 0.66 1.32 1.32 2 2 C2.66 1.67 3.32 1.34 4 1 C5.16063604 5.25566547 4.76173392 8.6835078 4 13 C3.54625 12.34 3.0925 11.68 2.625 11 C2.08875 10.34 1.5525 9.68 1 9 C0.34 9 -0.32 9 -1 9 C-0.67 6.03 -0.34 3.06 0 0 Z " fill="#CEB990" transform="translate(767,549)"/>
<path d="M0 0 C0.66 0 1.32 0 2 0 C0.38989473 4.07376031 -2.53822271 6.76507069 -5.625 9.75 C-6.140625 10.25660156 -6.65625 10.76320313 -7.1875 11.28515625 C-8.45383339 12.52803902 -9.7263144 13.76465276 -11 15 C-11.66 14.67 -12.32 14.34 -13 14 C-11.2088872 12.04115757 -9.41713468 10.08290714 -7.625 8.125 C-7.11710937 7.56941406 -6.60921875 7.01382812 -6.0859375 6.44140625 C-4.0883974 4.25988219 -2.09183907 2.09183907 0 0 Z " fill="#9D9069" transform="translate(440,372)"/>
<path d="M0 0 C0.66 0 1.32 0 2 0 C3.55053541 4.65160624 3.82489894 9.93775265 2 14.5 C1.67 14.995 1.34 15.49 1 16 C0.67 16 0.34 16 0 16 C0 10.72 0 5.44 0 0 Z " fill="#1E170A" transform="translate(775,479)"/>
<path d="M0 0 C2.54920625 3.17882948 4.41153172 6.49268645 6.25 10.125 C6.79140625 11.17945313 7.3328125 12.23390625 7.890625 13.3203125 C8.25671875 14.20460938 8.6228125 15.08890625 9 16 C8.67 16.66 8.34 17.32 8 18 C6.64963924 16.13722556 5.32031041 14.25919298 4 12.375 C2.88625 10.80878906 2.88625 10.80878906 1.75 9.2109375 C-0.12925862 5.76283351 -0.37062523 3.8568188 0 0 Z " fill="#A19472" transform="translate(733,377)"/>
<path d="M0 0 C1.67542976 0.28604898 3.34385343 0.61781233 5 1 C5 2.65 5 4.3 5 6 C3.34385343 6.38218767 1.67542976 6.71395102 0 7 C-1 6 -1 6 -1.125 3.5 C-1 1 -1 1 0 0 Z " fill="#B1A178" transform="translate(437,719)"/>
<path d="M0 0 C0.66 0 1.32 0 2 0 C0.3718356 3.75730247 -2.01401917 6.616823 -4.625 9.75 C-5.85089844 11.22726562 -5.85089844 11.22726562 -7.1015625 12.734375 C-7.72804688 13.48203125 -8.35453125 14.2296875 -9 15 C-9.33 14.01 -9.66 13.02 -10 12 C-8.46673161 9.78461995 -6.94625767 7.8330484 -5.1875 5.8125 C-4.72279297 5.25369141 -4.25808594 4.69488281 -3.77929688 4.11914062 C-2.57161268 2.70006838 -1.29024826 1.34444285 0 0 Z " fill="#B6AB8C" transform="translate(342,356)"/>
<path d="M0 0 C1.96529009 3.45207476 2.7746477 6.88476226 3.625 10.75 C3.88539063 11.92046875 4.14578125 13.0909375 4.4140625 14.296875 C4.60742188 15.18890625 4.80078125 16.0809375 5 17 C4.01 16.67 3.02 16.34 2 16 C-0.47416112 10.78658907 -1.62856381 5.6259477 0 0 Z " fill="#AFA084" transform="translate(295,557)"/>
<path d="M0 0 C4.19047619 6.28571429 4.19047619 6.28571429 3.75 10.25 C3 12 3 12 1 13 C-2 6.375 -2 6.375 -2 3 C-1.34 3 -0.68 3 0 3 C0 2.01 0 1.02 0 0 Z " fill="#AD9F78" transform="translate(758,417)"/>
<path d="M0 0 C1.37486373 0.38522752 2.74593046 0.78421357 4.11328125 1.1953125 C4.81517578 1.39511719 5.51707031 1.59492187 6.24023438 1.80078125 C7.97213068 2.29560876 9.69943873 2.80644425 11.42578125 3.3203125 C11.09578125 3.9803125 10.76578125 4.6403125 10.42578125 5.3203125 C4.51285085 4.67760267 -0.91666406 3.13027466 -6.57421875 1.3203125 C-3.57421875 -0.6796875 -3.57421875 -0.6796875 0 0 Z " fill="#908562" transform="translate(445.57421875,716.6796875)"/>
<path d="M0 0 C2.35448165 2.55068845 2.98327924 3.71017358 3.1875 7.25 C3.125625 8.1575 3.06375 9.065 3 10 C1.85073734 9.04578192 0.70569459 8.08647955 -0.4375 7.125 C-1.07558594 6.59132813 -1.71367188 6.05765625 -2.37109375 5.5078125 C-4 4 -4 4 -5 2 C-3.68 2 -2.36 2 -1 2 C-0.67 1.34 -0.34 0.68 0 0 Z " fill="#AC9C75" transform="translate(730,372)"/>
<path d="M0 0 C1.98 0.495 1.98 0.495 4 1 C4.33 2.65 4.66 4.3 5 6 C3.35 6.33 1.7 6.66 0 7 C-1.125 2.25 -1.125 2.25 0 0 Z " fill="#AA996A" transform="translate(730,268)"/>
<path d="M0 0 C5.4389165 -0.21755666 9.87080814 -0.10428384 15 2 C15 2.33 15 2.66 15 3 C10.38 3 5.76 3 1 3 C0.67 2.01 0.34 1.02 0 0 Z " fill="#AE9B74" transform="translate(535,250)"/>
<path d="M0 0 C0.66 0 1.32 0 2 0 C3.03159626 3.09478879 2.97482862 4.52631393 2.5625 7.6875 C2.46066406 8.49574219 2.35882813 9.30398438 2.25390625 10.13671875 C2.17011719 10.75160156 2.08632813 11.36648438 2 12 C3.65 12 5.3 12 7 12 C3.79663178 14.83374881 1.21912747 15.5205537 -3 16 C-2.2575 15.1028125 -2.2575 15.1028125 -1.5 14.1875 C0.69805475 9.51663366 0.24023041 5.0804284 0 0 Z " fill="#A1926F" transform="translate(263,683)"/>
<path d="M0 0 C1.33895632 1.66215268 2.67130142 3.32963607 4 5 C4.598125 5.70125 5.19625 6.4025 5.8125 7.125 C6.204375 7.74375 6.59625 8.3625 7 9 C6.67 9.99 6.34 10.98 6 12 C2.32966073 8.72291137 0.30718811 5.28477792 -2 1 C-1.34 0.67 -0.68 0.34 0 0 Z " fill="#9D916D" transform="translate(302,651)"/>
<path d="M0 0 C1.32 0.33 2.64 0.66 4 1 C4 4.3 4 7.6 4 11 C3.01 11 2.02 11 1 11 C-0.28317892 7.15046324 -0.06643637 4.05261865 0 0 Z " fill="#D6C393" transform="translate(260,553)"/>
<path d="M0 0 C0 3.48961209 -0.90379374 5.11480295 -2.5 8.1875 C-2.9640625 9.08855469 -3.428125 9.98960937 -3.90625 10.91796875 C-4.2671875 11.60503906 -4.628125 12.29210937 -5 13 C-5.99 13 -6.98 13 -8 13 C-7.39665691 9.29496359 -5.77525763 7.14031852 -3.4375 4.25 C-2.79683594 3.45078125 -2.15617188 2.6515625 -1.49609375 1.828125 C-1.00238281 1.22484375 -0.50867188 0.6215625 0 0 Z " fill="#1E1309" transform="translate(781,370)"/>
<path d="M0 0 C0 0.99 0 1.98 0 3 C0.66 3.66 1.32 4.32 2 5 C-2.00200378 6.60080151 -5.04556236 5.29279692 -9 4 C-6.43425105 1.43425105 -3.68548192 0 0 0 Z " fill="#A8966B" transform="translate(420,266)"/>
<path d="M0 0 C3.7910119 1.44950455 7.3874638 3.15172566 11 5 C9 6 9 6 5.875 5.0625 C4.92625 4.711875 3.9775 4.36125 3 4 C3.33 5.65 3.66 7.3 4 9 C3.34 9 2.68 9 2 9 C1.34 6.03 0.68 3.06 0 0 Z " fill="#131006" transform="translate(416,708)"/>
<path d="M0 0 C0.66 0.33 1.32 0.66 2 1 C-1.63 4.96 -5.26 8.92 -9 13 C-9.66 12.67 -10.32 12.34 -11 12 C-7.37 8.04 -3.74 4.08 0 0 Z " fill="#262315" transform="translate(682,652)"/>
<path d="M0 0 C2.17240606 3.25860909 2.23564158 3.82050803 1.8125 7.5 C1.73644531 8.2734375 1.66039062 9.046875 1.58203125 9.84375 C1 12 1 12 -2 15 C-2 11.7 -2 8.4 -2 5 C-1.67 5 -1.34 5 -1 5 C-0.67 3.35 -0.34 1.7 0 0 Z " fill="#C6B68A" transform="translate(772,474)"/>
<path d="M0 0 C0.60328125 0.08378906 1.2065625 0.16757812 1.828125 0.25390625 C3.02695312 0.40666016 3.02695312 0.40666016 4.25 0.5625 C5.03890625 0.66691406 5.8278125 0.77132812 6.640625 0.87890625 C9.00532874 1.00027349 10.7511037 0.69633257 13 0 C12.34 1.98 11.68 3.96 11 6 C6.95743617 4.77782954 3.50711041 3.37245704 0 1 C0 0.67 0 0.34 0 0 Z " fill="#918261" transform="translate(375,764)"/>
<path d="M0 0 C1.65 0.33 3.3 0.66 5 1 C4.6875 2.9375 4.6875 2.9375 4 5 C3.01 5.33 2.02 5.66 1 6 C0.34 5.67 -0.32 5.34 -1 5 C-0.67 3.35 -0.34 1.7 0 0 Z " fill="#A59770" transform="translate(289,708)"/>
<path d="M0 0 C0.66 0 1.32 0 2 0 C3.16063604 4.25566547 2.76173392 7.6835078 2 12 C-0.02559537 8.96160695 -1.11728545 6.5308582 -2 3 C-1.34 2.01 -0.68 1.02 0 0 Z " fill="#B5A681" transform="translate(272,591)"/>
<path d="M0 0 C0.66 0 1.32 0 2 0 C1.34580901 5.06998019 -0.8546409 9.41990777 -3 14 C-4.37095624 10.30962722 -3.60010967 8.29116165 -2.0625 4.75 C-1.68222656 3.85796875 -1.30195312 2.9659375 -0.91015625 2.046875 C-0.60980469 1.37140625 -0.30945313 0.6959375 0 0 Z " fill="#BAAE90" transform="translate(722,580)"/>
<path d="M0 0 C-2.1248044 1.1461973 -4.24983431 2.29197292 -6.375 3.4375 C-6.97828125 3.76298828 -7.5815625 4.08847656 -8.203125 4.42382812 C-12.7734375 6.88671875 -12.7734375 6.88671875 -15 8 C-13.57106495 4.41229749 -11.98491303 3.03489404 -8.625 1.1875 C-7.85414063 0.74792969 -7.08328125 0.30835938 -6.2890625 -0.14453125 C-3.68898395 -1.11623296 -2.56007809 -0.95272312 0 0 Z " fill="#1E180D" transform="translate(484,363)"/>
<path d="M0 0 C5.94 0 11.88 0 18 0 C17.01 1.32 16.02 2.64 15 4 C14.01 4 13.02 4 12 4 C12 3.34 12 2.68 12 2 C8.04 1.67 4.08 1.34 0 1 C0 0.67 0 0.34 0 0 Z " fill="#312B19" transform="translate(660,328)"/>
<path d="M0 0 C0.33 0.99 0.66 1.98 1 3 C-0.98 3 -2.96 3 -5 3 C-5 2.67 -5 2.34 -5 2 C-8.3 1.67 -11.6 1.34 -15 1 C-15 0.67 -15 0.34 -15 0 C-4.44191344 -1.33257403 -4.44191344 -1.33257403 0 0 Z " fill="#998A64" transform="translate(550,763)"/>
<path d="M0 0 C-2.85410334 1.50560497 -5.68124642 2.63216796 -8.75 3.625 C-9.54921875 3.88539063 -10.3484375 4.14578125 -11.171875 4.4140625 C-11.77515625 4.60742188 -12.3784375 4.80078125 -13 5 C-13.66 4.34 -14.32 3.68 -15 3 C-13.4447088 2.29634398 -11.88035173 1.61270622 -10.3125 0.9375 C-9.44238281 0.55464844 -8.57226562 0.17179687 -7.67578125 -0.22265625 C-4.67786136 -1.0935848 -2.96719847 -0.85006226 0 0 Z " fill="#9F9372" transform="translate(436,294)"/>
<path d="M0 0 C0.66 0.66 1.32 1.32 2 2 C0.73608512 3.00873016 -0.53640883 4.00671822 -1.8125 5 C-2.87404297 5.8353125 -2.87404297 5.8353125 -3.95703125 6.6875 C-6 8 -6 8 -9 8 C-9 7.34 -9 6.68 -9 6 C-7.03125 4.4921875 -7.03125 4.4921875 -4.5 2.875 C-3.6646875 2.33617187 -2.829375 1.79734375 -1.96875 1.2421875 C-1.3190625 0.83226562 -0.669375 0.42234375 0 0 Z " fill="#A59779" transform="translate(644,684)"/>
<path d="M0 0 C1.79133978 -0.05391993 3.58313899 -0.09275571 5.375 -0.125 C6.37273437 -0.14820313 7.37046875 -0.17140625 8.3984375 -0.1953125 C11 0 11 0 13 2 C9.73086376 3.03115279 7.13958652 2.9638984 3.75 2.5625 C2.85796875 2.46066406 1.9659375 2.35882812 1.046875 2.25390625 C0.37140625 2.17011719 -0.3040625 2.08632813 -1 2 C-0.67 1.34 -0.34 0.68 0 0 Z " fill="#1C1B10" transform="translate(372,677)"/>
<path d="M0 0 C2.31931615 3.47897423 2.04089055 5.03444498 1.42578125 9.05859375 C0.94162798 11.26615501 0.19829583 13.08272668 -1 15 C-2.20220203 11.46905698 -1.79532349 8.87101018 -1.0625 5.25 C-0.86785156 4.26515625 -0.67320312 3.2803125 -0.47265625 2.265625 C-0.31667969 1.51796875 -0.16070313 0.7703125 0 0 Z " fill="#453D25" transform="translate(764,554)"/>
<path d="M0 0 C1.76462683 3.08809695 2 4.23312136 2 8 C0.35 7.67 -1.3 7.34 -3 7 C-3 5.02 -3 3.04 -3 1 C-2.01 0.67 -1.02 0.34 0 0 Z " fill="#D2BF8E" transform="translate(772,533)"/>
<path d="M0 0 C0.33 0 0.66 0 1 0 C0.67 4.29 0.34 8.58 0 13 C-0.99 13.33 -1.98 13.66 -3 14 C-3 11.69 -3 9.38 -3 7 C-2.34 7 -1.68 7 -1 7 C-0.67 4.69 -0.34 2.38 0 0 Z " fill="#B3A274" transform="translate(772,468)"/>
<path d="M0 0 C0.99 0.33 1.98 0.66 3 1 C3 1.66 3 2.32 3 3 C2.34 3 1.68 3 1 3 C0.67 3.66 0.34 4.32 0 5 C-1.31328657 6.35308313 -2.64499081 7.68870078 -4 9 C-3.6875 5.625 -3.6875 5.625 -3 2 C-2.01 1.34 -1.02 0.68 0 0 Z " fill="#CEBD8F" transform="translate(278,404)"/>
<path d="M0 0 C2.52259061 1.97420135 2.9929808 2.96745642 3.6875 6.1875 C3.790625 7.115625 3.89375 8.04375 4 9 C2.02 8.01 0.04 7.02 -2 6 C-1.34 4.02 -0.68 2.04 0 0 Z " fill="#1C170C" transform="translate(744,393)"/>
<path d="M0 0 C5.09210286 3.56320845 9.22660027 7.04741286 13 12 C12.01 12.495 12.01 12.495 11 13 C10.484375 12.29875 9.96875 11.5975 9.4375 10.875 C6.9655374 7.9593518 4.36869003 5.70322169 1.390625 3.33203125 C0.93171875 2.89246094 0.4728125 2.45289063 0 2 C0 1.34 0 0.68 0 0 Z " fill="#211810" transform="translate(709,359)"/>
<path d="M0 0 C3.96 1.98 7.92 3.96 12 6 C12 6.66 12 7.32 12 8 C7.1725201 6.58707905 3.2837641 4.57025846 -1 2 C-0.67 1.34 -0.34 0.68 0 0 Z " fill="#A99C7B" transform="translate(612,302)"/>
<path d="M0 0 C0.33 0.99 0.66 1.98 1 3 C0.67 3.66 0.34 4.32 0 5 C-0.22950319 7.204364 -0.41075933 9.41392173 -0.5625 11.625 C-0.64628906 12.81351563 -0.73007812 14.00203125 -0.81640625 15.2265625 C-0.87699219 16.14179687 -0.93757813 17.05703125 -1 18 C-1.33 18 -1.66 18 -2 18 C-2 13.71 -2 9.42 -2 5 C-2.66 4.67 -3.32 4.34 -4 4 C-2.68 2.68 -1.36 1.36 0 0 Z " fill="#1D1908" transform="translate(312,700)"/>
<path d="M0 0 C-2.29576678 2.29576678 -3.90346249 3.0638375 -7 4 C-9.8125 3.625 -9.8125 3.625 -12 3 C-4.82142857 -1.78571429 -4.82142857 -1.78571429 0 0 Z " fill="#9A8B69" transform="translate(593,714)"/>
<path d="M0 0 C0.66 0.33 1.32 0.66 2 1 C1.278125 1.556875 0.55625 2.11375 -0.1875 2.6875 C-3.07040666 4.9634445 -3.07040666 4.9634445 -5.625 7.75 C-8 10 -8 10 -11 10 C-9.54474941 8.51780033 -8.085701 7.03932861 -6.625 5.5625 C-5.81289063 4.73878906 -5.00078125 3.91507813 -4.1640625 3.06640625 C-2 1 -2 1 0 0 Z " fill="#1E1408" transform="translate(362,681)"/>
<path d="M0 0 C1.8125 0.1875 1.8125 0.1875 4 1 C5.75 3.5625 5.75 3.5625 7 6 C5.68 6.33 4.36 6.66 3 7 C0 2.25 0 2.25 0 0 Z " fill="#151107" transform="translate(311,670)"/>
<path d="M0 0 C2.8646211 1.44509904 5.54759163 2.91867974 8 5 C8.5 8.3125 8.5 8.3125 8 11 C7.4225 10.2575 6.845 9.515 6.25 8.75 C4.09340686 6.00801381 4.09340686 6.00801381 1.75 3.8125 C0 2 0 2 0 0 Z " fill="#A49676" transform="translate(313,662)"/>
<path d="M0 0 C1.32 0.66 2.64 1.32 4 2 C3.67 3.32 3.34 4.64 3 6 C1.68 5.67 0.36 5.34 -1 5 C-1 1 -1 1 0 0 Z " fill="#B5A381" transform="translate(325,646)"/>
<path d="M0 0 C2.52349243 3.12432397 4.27256146 6.38060496 6 10 C5.34 10 4.68 10 4 10 C3.67 10.66 3.34 11.32 3 12 C2.49166409 10.75336669 1.99368855 9.50250613 1.5 8.25 C1.2215625 7.55390625 0.943125 6.8578125 0.65625 6.140625 C0 4 0 4 0 0 Z " fill="#C2B691" transform="translate(268,563)"/>
<path d="M0 0 C0.66 0.33 1.32 0.66 2 1 C2.40197001 3.32249342 2.72686657 5.65885633 3 8 C3.31966139 9.66934283 3.64731066 11.3373217 4 13 C3.01 12.67 2.02 12.34 1 12 C0.63762737 10.37681021 0.28534843 8.7513642 -0.0625 7.125 C-0.25972656 6.22007812 -0.45695312 5.31515625 -0.66015625 4.3828125 C-1 2 -1 2 0 0 Z " fill="#332E19" transform="translate(267,562)"/>
<path d="M0 0 C0.99 0.495 0.99 0.495 2 1 C2.96070434 3.88211302 3.10581883 5.69850044 3.0625 8.6875 C3.05347656 9.49574219 3.04445313 10.30398438 3.03515625 11.13671875 C3.02355469 11.75160156 3.01195312 12.36648438 3 13 C0.41073669 10.41073669 0.62601957 8.97294721 0.375 5.375 C0.30023437 4.37210937 0.22546875 3.36921875 0.1484375 2.3359375 C0.09945312 1.56507813 0.05046875 0.79421875 0 0 Z " fill="#171105" transform="translate(770,451)"/>
<path d="M0 0 C0.33 2.31 0.66 4.62 1 7 C0.34 7 -0.32 7 -1 7 C-1.66 7.66 -2.32 8.32 -3 9 C-3.33 6.36 -3.66 3.72 -4 1 C-1 0 -1 0 0 0 Z " fill="#B0A079" transform="translate(768,445)"/>
<path d="M0 0 C3.71888239 0.50712033 6.73454239 1.11608215 10 3 C10 3.66 10 4.32 10 5 C9.05125 4.814375 8.1025 4.62875 7.125 4.4375 C4.10131207 3.71313368 4.10131207 3.71313368 2 5 C1.34 3.35 0.68 1.7 0 0 Z " fill="#A29469" transform="translate(639,186)"/>
<path d="M0 0 C3.33727786 1.17255709 5.77437487 2.18868404 8 5 C8 5.66 8 6.32 8 7 C4.06326356 5.68775452 1.77280706 4.08089673 -1 1 C-0.67 0.67 -0.34 0.34 0 0 Z " fill="#161008" transform="translate(338,699)"/>
<path d="M0 0 C4 5 4 5 3.953125 8.11328125 C3.72109375 9.16902344 3.4890625 10.22476563 3.25 11.3125 C3.02828125 12.38113281 2.8065625 13.44976563 2.578125 14.55078125 C2.29195313 15.76314453 2.29195313 15.76314453 2 17 C1.67 17 1.34 17 1 17 C0.67 11.39 0.34 5.78 0 0 Z " fill="#978D68" transform="translate(308,667)"/>
<path d="M0 0 C0 0.66 0 1.32 0 2 C0.66 2.33 1.32 2.66 2 3 C1.67 3.66 1.34 4.32 1 5 C-2.3 4.34 -5.6 3.68 -9 3 C-5.73209435 0.82139623 -3.91954654 0 0 0 Z " fill="#A29468" transform="translate(432,262)"/>
<path d="M0 0 C0.33 0 0.66 0 1 0 C1.28571429 8.57142857 1.28571429 8.57142857 -1 12 C-2.3899408 9.2201184 -2.18488204 7.0813674 -2 4 C-1 1.625 -1 1.625 0 0 Z " fill="#CAB583" transform="translate(774,486)"/>
<path d="M0 0 C2.11635213 2.57642867 3.67339287 4.62505968 4 8 C3.01 9.485 3.01 9.485 2 11 C1.47007308 9.54494642 0.9513211 8.08581873 0.4375 6.625 C0.14746094 5.81289063 -0.14257812 5.00078125 -0.44140625 4.1640625 C-1 2 -1 2 0 0 Z " fill="#B2A27E" transform="translate(749,397)"/>
<path d="M0 0 C-2.96278714 1.64599285 -5.61306808 2.65262237 -9 3 C-9.99 2.34 -10.98 1.68 -12 1 C-7.58774263 -0.47075246 -4.51718381 -1.36884358 0 0 Z " fill="#9A906C" transform="translate(464,285)"/>
<path d="M0 0 C2.1640625 0.0234375 2.1640625 0.0234375 4.625 0.375 C5.85089844 0.54128906 5.85089844 0.54128906 7.1015625 0.7109375 C7.72804688 0.80632812 8.35453125 0.90171875 9 1 C7.76171875 2.55078125 7.76171875 2.55078125 6 4 C3.15124622 3.79846293 0.74900747 2.85624823 -2 2 C-1.34 1.34 -0.68 0.68 0 0 Z " fill="#B4A274" transform="translate(409,270)"/>
<path d="M0 0 C1.46015291 0.28241641 2.91809793 0.57626614 4.375 0.875 C5.18710937 1.03742187 5.99921875 1.19984375 6.8359375 1.3671875 C9 2 9 2 11 4 C10.01 4 9.02 4 8 4 C7.67 4.66 7.34 5.32 7 6 C6.38125 5.2884375 6.38125 5.2884375 5.75 4.5625 C3.817815 2.83733482 2.51807725 2.43415125 0 2 C0 1.34 0 0.68 0 0 Z " fill="#1D190A" transform="translate(436,717)"/>
<path d="M0 0 C0.66 0.33 1.32 0.66 2 1 C1.25 7.625 1.25 7.625 -1 11 C-1.0270043 9.54176788 -1.04639787 8.08339325 -1.0625 6.625 C-1.07410156 5.81289063 -1.08570313 5.00078125 -1.09765625 4.1640625 C-1 2 -1 2 0 0 Z " fill="#BDAB79" transform="translate(311,673)"/>
<path d="M0 0 C0.66 0.66 1.32 1.32 2 2 C1.625 4.125 1.625 4.125 1 6 C0.34 6 -0.32 6 -1 6 C-1.66 6.99 -2.32 7.98 -3 9 C-2.4140625 2.84765625 -2.4140625 2.84765625 -2 1 C-1.34 0.67 -0.68 0.34 0 0 Z " fill="#E2C99A" transform="translate(768,557)"/>
<path d="M0 0 C0 0.99 0 1.98 0 3 C0.66 3.33 1.32 3.66 2 4 C1.01 3.7834375 1.01 3.7834375 0 3.5625 C-3.65599551 2.87700084 -7.30622195 2.43824485 -11 2 C-11 1.67 -11 1.34 -11 1 C-7.26513121 0.4254048 -3.78706732 0 0 0 Z " fill="#968761" transform="translate(562,760)"/>
<path d="M0 0 C1.19156292 4.76625167 0.3415946 5.87879351 -2 10 C-2.99 10 -3.98 10 -5 10 C-3.35 6.7 -1.7 3.4 0 0 Z " fill="#120D04" transform="translate(611,609)"/>
<path d="M0 0 C0.93065133 2.60582371 1.14917407 3.64198224 0.0625 6.25 C-0.4634375 7.11625 -0.4634375 7.11625 -1 8 C-1.99 7.67 -2.98 7.34 -4 7 C-2.92598892 4.08482708 -2.22189824 2.22189824 0 0 Z " fill="#0C0904" transform="translate(749,605)"/>
<path d="M0 0 C0.33 0 0.66 0 1 0 C1.1953125 6.0546875 1.1953125 6.0546875 1 8 C0.34 8.66 -0.32 9.32 -1 10 C-1.99 7.69 -2.98 5.38 -4 3 C-3.01 3 -2.02 3 -1 3 C-0.67 2.01 -0.34 1.02 0 0 Z " fill="#9F926E" transform="translate(745,375)"/>
<path d="M0 0 C3.9492568 0.55105909 7.34920174 1.38935371 11 3 C11 3.33 11 3.66 11 4 C3.375 3.125 3.375 3.125 0 2 C0 1.34 0 0.68 0 0 Z " fill="#AA9D7B" transform="translate(581,290)"/>
<path d="M0 0 C6.625 -0.25 6.625 -0.25 10 2 C5.545 2.495 5.545 2.495 1 3 C0.67 2.01 0.34 1.02 0 0 Z " fill="#BDAD7B" transform="translate(453,256)"/>
<path d="M0 0 C0.94875 0.04125 1.8975 0.0825 2.875 0.125 C3.205 0.785 3.535 1.445 3.875 2.125 C3.09125 2.08375 2.3075 2.0425 1.5 2 C-1.28616119 1.83771266 -1.28616119 1.83771266 -3.125 4.125 C-3.82248583 5.44247324 -4.49459957 6.77414193 -5.125 8.125 C-5.25 5.25 -5.25 5.25 -5.125 2.125 C-3.125 0.125 -3.125 0.125 0 0 Z " fill="#AFA27A" transform="translate(433.125,730.875)"/>
<path d="M0 0 C2.46800047 1.15173355 4.04783565 2.04783565 6 4 C5.625 6.125 5.625 6.125 5 8 C0 2.25 0 2.25 0 0 Z " fill="#100D04" transform="translate(318,672)"/>
<path d="M0 0 C0.33 1.32 0.66 2.64 1 4 C-0.21484375 5.921875 -0.21484375 5.921875 -1.9375 7.75 C-2.50339844 8.36359375 -3.06929687 8.9771875 -3.65234375 9.609375 C-4.31943359 10.29773438 -4.31943359 10.29773438 -5 11 C-5.66 10.67 -6.32 10.34 -7 10 C-3.535 5.05 -3.535 5.05 0 0 Z " fill="#B2A47D" transform="translate(725,652)"/>
<path d="M0 0 C1.32 0 2.64 0 4 0 C4.33 1.32 4.66 2.64 5 4 C4.01 4 3.02 4 2 4 C1.01 4.33 0.02 4.66 -1 5 C-0.67 3.35 -0.34 1.7 0 0 Z " fill="#C9B78F" transform="translate(740,628)"/>
<path d="M0 0 C0.99 0 1.98 0 3 0 C1.77263971 4.15414253 0.672336 6.43688534 -2 10 C-1.34 6.7 -0.68 3.4 0 0 Z " fill="#17140B" transform="translate(744,614)"/>
<path d="M0 0 C-1.32 1.32 -2.64 2.64 -4 4 C-4 3.34 -4 2.68 -4 2 C-5.98 2.33 -7.96 2.66 -10 3 C-6.68152292 -0.06320961 -4.44849969 -0.3033068 0 0 Z " fill="#C7B894" transform="translate(810,498)"/>
<path d="M0 0 C0.99 0.33 1.98 0.66 3 1 C2.0479279 2.00596297 1.08812654 3.00461563 0.125 4 C-0.40867187 4.556875 -0.94234375 5.11375 -1.4921875 5.6875 C-3 7 -3 7 -5 7 C-3.70700306 4.11562221 -2.34058637 2.12780579 0 0 Z " fill="#B5A98D" transform="translate(359,338)"/>
<path d="M0 0 C2.31 0 4.62 0 7 0 C7 0.99 7 1.98 7 3 C5.02 3.33 3.04 3.66 1 4 C0.67 2.68 0.34 1.36 0 0 Z " fill="#BCA877" transform="translate(466,253)"/>
<path d="M0 0 C-0.1875 1.8125 -0.1875 1.8125 -1 4 C-3.4375 5.8125 -3.4375 5.8125 -6 7 C-6.66 6.67 -7.32 6.34 -8 6 C-7.0479279 4.99403703 -6.08812654 3.99538437 -5.125 3 C-4.59132813 2.443125 -4.05765625 1.88625 -3.5078125 1.3125 C-2 0 -2 0 0 0 Z " fill="#BBAC80" transform="translate(703,683)"/>
<path d="M0 0 C1.98 0.66 3.96 1.32 6 2 C6 2.66 6 3.32 6 4 C7.32 4.33 8.64 4.66 10 5 C10 5.66 10 6.32 10 7 C5.56541027 5.6062718 3.12621626 3.39417765 0 0 Z " fill="#1C1709" transform="translate(455,639)"/>
<path d="M0 0 C2.475 0.495 2.475 0.495 5 1 C5.33 1.99 5.66 2.98 6 4 C5.01 4.99 4.02 5.98 3 7 C2.01 4.69 1.02 2.38 0 0 Z " fill="#AB9C7A" transform="translate(282,622)"/>
<path d="M0 0 C0.33 0 0.66 0 1 0 C2.01911045 3.89114901 2.16782969 5.60596507 0.5625 9.375 C0.046875 10.24125 -0.46875 11.1075 -1 12 C-2.09898702 8.70303895 -1.87124444 7.59505097 -1.0625 4.3125 C-0.86785156 3.50425781 -0.67320312 2.69601562 -0.47265625 1.86328125 C-0.31667969 1.24839844 -0.16070313 0.63351562 0 0 Z " fill="#ABA17B" transform="translate(774,552)"/>
<path d="M0 0 C0.33 0.66 0.66 1.32 1 2 C1.66 2 2.32 2 3 2 C2.67 4.31 2.34 6.62 2 9 C1.34 9 0.68 9 0 9 C0 6.03 0 3.06 0 0 Z " fill="#25200E" transform="translate(774,534)"/>
<path d="M0 0 C0.66 0 1.32 0 2 0 C1.5205537 4.21912747 0.83374881 6.79663178 -2 10 C-1.54177532 6.53058454 -1.10868317 3.32604951 0 0 Z " fill="#BDB397" transform="translate(304,416)"/>
<path d="M0 0 C0.6875 1.6875 0.6875 1.6875 1 4 C-0.3125 6.75 -0.3125 6.75 -2 9 C-2.66 9 -3.32 9 -4 9 C-2.94124926 5.59687262 -1.99097846 2.98646769 0 0 Z " fill="#B8AF8F" transform="translate(319,387)"/>
<path d="M0 0 C0.66 0.99 1.32 1.98 2 3 C0.68 4.65 -0.64 6.3 -2 8 C-2.99 7.67 -3.98 7.34 -5 7 C-3.35 4.69 -1.7 2.38 0 0 Z " fill="#A89C7D" transform="translate(331,369)"/>
<path d="M0 0 C0.78375 0.04125 1.5675 0.0825 2.375 0.125 C1.055 0.455 -0.265 0.785 -1.625 1.125 C-1.955 3.765 -2.285 6.405 -2.625 9.125 C-3.285 8.795 -3.945 8.465 -4.625 8.125 C-4.75 5.25 -4.75 5.25 -4.625 2.125 C-2.625 0.125 -2.625 0.125 0 0 Z " fill="#AA997C" transform="translate(654.625,347.875)"/>
<path d="M0 0 C-2.75924185 1.80411967 -3.88972103 2.0127245 -7.25 1.625 C-8.1575 1.41875 -9.065 1.2125 -10 1 C-6.1496895 -1.56687367 -4.41430237 -0.83288724 0 0 Z " fill="#958664" transform="translate(569,722)"/>
<path d="M0 0 C0.66 0.33 1.32 0.66 2 1 C1.67 2.32 1.34 3.64 1 5 C-0.98 5.33 -2.96 5.66 -5 6 C-3.35 4.02 -1.7 2.04 0 0 Z " fill="#A2936D" transform="translate(303,702)"/>
<path d="M0 0 C0.33 0.99 0.66 1.98 1 3 C-0.98 4.98 -2.96 6.96 -5 9 C-5.66 8.67 -6.32 8.34 -7 8 C-4.69 5.36 -2.38 2.72 0 0 Z " fill="#A0906B" transform="translate(571,632)"/>
<path d="M0 0 C0.66 0.99 1.32 1.98 2 3 C1.01 4.98 0.02 6.96 -1 9 C-1.99 8.34 -2.98 7.68 -4 7 C-2.68 4.69 -1.36 2.38 0 0 Z " fill="#A99B79" transform="translate(712,603)"/>
<path d="M0 0 C0.66 1.32 1.32 2.64 2 4 C1 7 1 7 -3 9 C-2.01 6.03 -1.02 3.06 0 0 Z " fill="#2A2012" transform="translate(755,587)"/>
<path d="M0 0 C1.32 0.33 2.64 0.66 4 1 C4 2.65 4 4.3 4 6 C2.66666667 6 1.33333333 6 0 6 C0 4.02 0 2.04 0 0 Z " fill="#E8CE9F" transform="translate(768,546)"/>
<path d="M0 0 C2.64752004 2.57784846 4.94432065 4.91648098 7 8 C6.01 8 5.02 8 4 8 C0 2.74285714 0 2.74285714 0 0 Z " fill="#21190E" transform="translate(714,346)"/>
<path d="M0 0 C2.625 -0.1875 2.625 -0.1875 5 0 C5.33 0.99 5.66 1.98 6 3 C3.36 3 0.72 3 -2 3 C-1.34 2.01 -0.68 1.02 0 0 Z " fill="#A89874" transform="translate(448,735)"/>
<path d="M0 0 C2.475 0.495 2.475 0.495 5 1 C4.01 1.495 4.01 1.495 3 2 C3 3.32 3 4.64 3 6 C2.01 5.67 1.02 5.34 0 5 C0 3.35 0 1.7 0 0 Z " fill="#A99767" transform="translate(437,719)"/>
<path d="M0 0 C0 3.93169105 -1.39419615 5.16427228 -4 8 C-4.66 8 -5.32 8 -6 8 C-4.55746343 4.63408134 -2.66735273 2.48952921 0 0 Z " fill="#ADA479" transform="translate(709,674)"/>
<path d="M0 0 C0.33 0.99 0.66 1.98 1 3 C0.01 4.485 0.01 4.485 -1 6 C-1.66 6 -2.32 6 -3 6 C-3.99 6.495 -3.99 6.495 -5 7 C-3.75023244 3.34683329 -3.32901247 2.21934164 0 0 Z " fill="#18130A" transform="translate(751,601)"/>
<path d="M0 0 C0.33 0 0.66 0 1 0 C1 3.96 1 7.92 1 12 C0.01 11.67 -0.98 11.34 -2 11 C-2 10.34 -2 9.68 -2 9 C-1.34 9 -0.68 9 0 9 C0 6.03 0 3.06 0 0 Z " fill="#0F0C04" transform="translate(782,452)"/>
<path d="M0 0 C1.65 1.65 3.3 3.3 5 5 C4.01 5.495 4.01 5.495 3 6 C2.67 7.32 2.34 8.64 2 10 C1.34 6.7 0.68 3.4 0 0 Z " fill="#A99C7E" transform="translate(771,450)"/>
<path d="M0 0 C2.52588702 2.36292656 3.88820837 3.66462511 5 7 C4.34 7.66 3.68 8.32 3 9 C0 3.375 0 3.375 0 0 Z " fill="#B2A279" transform="translate(740,382)"/>
<path d="M0 0 C0.66 0.33 1.32 0.66 2 1 C2 2.98 2 4.96 2 7 C0 5.625 0 5.625 -2 4 C-2 3.34 -2 2.68 -2 2 C-1.34 2 -0.68 2 0 2 C0 1.34 0 0.68 0 0 Z " fill="#BBAA84" transform="translate(731,375)"/>
<path d="M0 0 C3.875 1.75 3.875 1.75 5 4 C1.7 3.67 -1.6 3.34 -5 3 C-5 2.67 -5 2.34 -5 2 C-3.35 2 -1.7 2 0 2 C0 1.34 0 0.68 0 0 Z " fill="#B6AB89" transform="translate(819,356)"/>
<path d="M0 0 C0.99 0.33 1.98 0.66 3 1 C-0.465 3.97 -0.465 3.97 -4 7 C-2.92598892 4.08482708 -2.22189824 2.22189824 0 0 Z " fill="#161008" transform="translate(675,353)"/>
<path d="M0 0 C0.33 0.66 0.66 1.32 1 2 C0.0625 4.625 0.0625 4.625 -1 7 C-2.32 6.34 -3.64 5.68 -5 5 C-4.1875 3.0625 -4.1875 3.0625 -3 1 C-2.01 0.67 -1.02 0.34 0 0 Z " fill="#B09F71" transform="translate(405,272)"/>
</svg>
